<ttFont>
<head>
    <!-- Most of this table will be recalculated by the compiler -->
    <tableVersion value="1.0"/>
    <fontRevision value="1.002"/>
    <checkSumAdjustment value="0x690e7c12"/>
    <magicNumber value="0x5f0f3cf5"/>
    <flags value="00000000 00000011"/>
    <unitsPerEm value="1000"/>
    <created value="Tue Jan  1 10:00:48 2019"/>
    <modified value="Mon Apr 27 13:29:00 2020"/>
    <xMin value="-70"/>
    <yMin value="-252"/>
    <xMax value="1399"/>
    <yMax value="911"/>
    <macStyle value="00000000 00000001"/>
    <lowestRecPPEM value="3"/>
    <fontDirectionHint value="2"/>
    <indexToLocFormat value="0"/>
    <glyphDataFormat value="0"/>
  </head>
          <CharString index="0">
            hstem
            44 158 return
          </CharString>
          <CharString index="1">
            rmoveto
            2 callgsubr
          </CharString>
          <CharString index="2">
            -12 118 286 118 return
          </CharString>
          <CharString index="3">
            668 rmoveto
            return
          </CharString>
          <CharString index="4">
            rmoveto
            -20 callsubr
            -111 -135 rlineto
            endchar
          </CharString>
          <CharString index="5">
            35 -12 129 551 -20 return
          </CharString>
          <CharString index="6">
            141 hstemhm
            return
          </CharString>
          <CharString index="7">
            -42 0 25 callsubr
            return
          </CharString>
          <CharString index="8">
            142 -93 callgsubr
            return
          </CharString>
          <CharString index="9">
            -321 21 -21 381 115 return
          </CharString>
          <CharString index="10">
            44 -104 callsubr
            -668 return
          </CharString>
          <CharString index="11">
            -54 44 -44 54 return
          </CharString>
          <CharString index="12">
            18 -60 rlineto
            141 hlineto
            -52 callgsubr
            return
          </CharString>
          <CharString index="13">
            -46 32 -39 43 -10 vhcurveto
            return
          </CharString>
          <CharString index="14">
            hstemhm
            50 152 return
          </CharString>
          <CharString index="15">
            -15 9 47 hvcurveto
            return
          </CharString>
          <CharString index="16">
            -128 vlineto
            endchar
          </CharString>
          <CharString index="17">
            hstem
            24 153 return
          </CharString>
          <CharString index="18">
            rlineto
            -174 hlineto
            return
          </CharString>
          <CharString index="19">
            vvcurveto
            -38 34 -51 108 -29 callgsubr
            vhcurveto
            75 vlineto
            -2 -8 -21 -7 -20 hhcurveto
            -22 -24 6 24 return
          </CharString>
          <CharString index="20">
            11 callgsubr
            -76 -55 -43 -37 -22 vhcurveto
            return
          </CharString>
          <CharString index="21">
            rmoveto
            89 hlineto
            -61 callsubr
            return
          </CharString>
          <CharString index="22">
            52 118 rlineto
            2 5 1 6 6 vvcurveto
            27 -21 30 -34 -23 -28 -16 -31 -5 vhcurveto
            return
          </CharString>
          <CharString index="23">
            rmoveto
            -12 vlineto
            -73 callgsubr
            return
          </CharString>
          <CharString index="24">
            -49 -105 callsubr
            64 return
          </CharString>
          <CharString index="25">
            -92 -24 -37 -64 -74 -2 59 71 vhcurveto
            260 return
          </CharString>
          <CharString index="26">
            -1 0 139 390 139 return
          </CharString>
          <CharString index="27">
            59 callgsubr
            endchar
          </CharString>
          <CharString index="28">
            -107 41 102 -62 146 hhcurveto
            return
          </CharString>
          <CharString index="29">
            24 49 21 46 23 return
          </CharString>
          <CharString index="30">
            -105 callgsubr
            hstem
            15 return
          </CharString>
          <CharString index="31">
            hstemhm
            24 158 return
          </CharString>
          <CharString index="32">
            23 callsubr
            45 callgsubr
            hintmask 01111110
            -95 callsubr
            hintmask 10111110
            -90 77 -56 94 vhcurveto
            return
          </CharString>
          <CharString index="33">
            -9 callgsubr
            263 142 rmoveto
            -36 callgsubr
            105 48 37 60 hvcurveto
            return
          </CharString>
          <CharString index="34">
            rmoveto
            114 hlineto
            -47 callgsubr
            207 -133 rmoveto
            -6 callsubr
          </CharString>
          <CharString index="35">
            43 callgsubr
            292 rmoveto
            -206 79 -98 209 -86 callgsubr
            vhcurveto
            -77 callgsubr
            vlineto
            return
          </CharString>
          <CharString index="36">
            -37 callsubr
            55 callgsubr
            return
          </CharString>
          <CharString index="37">
            -97 callsubr
            514 139 -356 135 217 139 -217 116 356 139 vlineto
            return
          </CharString>
          <CharString index="38">
            161 -18 callsubr
          </CharString>
          <CharString index="39">
            rmoveto
            -17 7 -13 12 -12 vhcurveto
            -49 callgsubr
            hvcurveto
            endchar
          </CharString>
          <CharString index="40">
            rmoveto
            hintmask 11101000
            -104 callgsubr
          </CharString>
          <CharString index="41">
            -39 -12 -41 -27 -46 -88 callsubr
            return
          </CharString>
          <CharString index="42">
            hstem
            118 153 vstem
            26 callgsubr
            return
          </CharString>
          <CharString index="43">
            116 -108 124 -152 -124 -82 return
          </CharString>
          <CharString index="44">
            15 callsubr
            94 -420 return
          </CharString>
          <CharString index="45">
            -25 -203 116 105 118 256 119 -15 -20 return
          </CharString>
          <CharString index="46">
            4 22 18 12 24 -1 17 -1 11 -9 24 -12 rrcurveto
            return
          </CharString>
          <CharString index="47">
            -58 callsubr
            endchar
          </CharString>
          <CharString index="48">
            -250 21 -21 361 149 -14 -20 34 -20 return
          </CharString>
          <CharString index="49">
            -41 -20 41 -63 hhcurveto
            -71 -42 -42 -73 -12 hvcurveto
            return
          </CharString>
          <CharString index="50">
            222 -12 rmoveto
            76 39 33 49 29 hvcurveto
            return
          </CharString>
          <CharString index="51">
            54 -44 43 -53 -54 -44 -43 -54 vhcurveto
            return
          </CharString>
          <CharString index="52">
            97 -12 130 -97 -21 250 128 172 130 return
          </CharString>
          <CharString index="53">
            -3 -12 127 438 127 return
          </CharString>
          <CharString index="54">
            -104 -161 110 547 -20 return
          </CharString>
          <CharString index="55">
            -88 -12 111 300 111 return
          </CharString>
          <CharString index="56">
            -14 -13 -11 -7 -19 hhcurveto
            return
          </CharString>
          <CharString index="57">
            rmoveto
            299 98 -299 hlineto
            return
          </CharString>
          <CharString index="58">
            -6 -10 4 -13 10 -5 return
          </CharString>
          <CharString index="59">
            hlineto
            14 234 rlineto
            return
          </CharString>
          <CharString index="60">
            -27 91 rlineto
            -120 return
          </CharString>
          <CharString index="61">
            158 vstem
            41 return
          </CharString>
          <CharString index="62">
            24 251 rmoveto
            -164 111 -99 161 81 84 35 76 52 vhcurveto
            -121 44 rlineto
            -76 callgsubr
            return
          </CharString>
          <CharString index="63">
            -4 callgsubr
            155 hmoveto
            105 48 37 60 -36 callgsubr
            vhcurveto
            return
          </CharString>
          <CharString index="64">
            -243 -251 45 206 124 256 116 hstemhm
            95 152 -71 118 hintmask 11110000
            355 380 rmoveto
            -64 callsubr
            -116 82 -240 vlineto
            -33 callgsubr
            96 124 -44 hlineto
            -49 -15 9 47 hvcurveto
            200 vlineto
            -121 -631 -67 callsubr
          </CharString>
          <CharString index="65">
            140 rmoveto
            -106 41 104 -46 113 hhcurveto
            137 126 68 139 61 -38 71 -66 25 hvcurveto
            hintmask 11110000
            47 27 46 56 72 vvcurveto
            120 -126 53 -122 -110 -106 -43 -102 -39 vhcurveto
            137 -50 rlineto
            61 13 47 21 49 hhcurveto
            55 49 -26 -52 -59 -64 -33 -115 hvcurveto
            -106 vlineto
            hintmask 11101000
            100 87 -21 -82 -55 -40 -32 -63 -55 -52 24 65 -17 hvcurveto
            endchar
          </CharString>
          <CharString index="66">
            -99 callsubr
            51 154 -11 callgsubr
            -179 346 rmoveto
            1 callsubr
            return
          </CharString>
          <CharString index="67">
            8 callsubr
            -16 callgsubr
            return
          </CharString>
          <CharString index="68">
            -90 callsubr
            226 141 vstem
            -17 callgsubr
            return
          </CharString>
          <CharString index="69">
            -5 -251 45 227 -21 529 139 hstemhm
            230 157 -96 118 hintmask 11110000
            15 -104 callsubr
            -139 215 24 callsubr
            vlineto
            -361 -919 -67 callsubr
          </CharString>
          <CharString index="70">
            -139 51 rlineto
            -58 -31 -61 -17 -50 hhcurveto
            -95 -73 76 140 136 73 80 93 54 55 -22 -54 30 hvcurveto
            140 51 rlineto
            94 -51 -97 61 -126 hhcurveto
            return
          </CharString>
          <CharString index="71">
            -91 callgsubr
            vstem
            45 callsubr
            56 callgsubr
            126 102 59 95 54 vhcurveto
            -71 callsubr
            hvcurveto
            return
          </CharString>
          <CharString index="72">
            -61 callsubr
            hintmask 11101100
            -75 callgsubr
            hintmask 11011100
            -74 callgsubr
            hintmask 11101100
            -51 callsubr
            hintmask 11011100
            -60 callsubr
          </CharString>
          <CharString index="73">
            -86 callsubr
            hintmask 10100000
            -55 callgsubr
            hintmask 01100000
            -60 callsubr
          </CharString>
          <CharString index="74">
            -90 callsubr
            226 141 vstem
            -45 callsubr
            return
          </CharString>
          <CharString index="75">
            125 rmoveto
            -125 513 125 -319 vlineto
            196 114 120 111 135 vvcurveto
            125 -102 70 -136 -118 -93 -52 -93 -36 vhcurveto
            138 -50 rlineto
            62 15 45 20 42 hhcurveto
            49 43 -27 -52 -113 -201 -140 -113 -79 hvcurveto
            endchar
          </CharString>
          <CharString index="76">
            -97 callgsubr
            83 154 hstem
            5 680 -10 callgsubr
            return
          </CharString>
          <CharString index="77">
            58 callgsubr
            hintmask 10111100
            hintmask 11011100
            19 callsubr
            hintmask 10111100
            -87 callsubr
            hintmask 11011100
            -19 66 rlineto
            return
          </CharString>
          <CharString index="78">
            -2 callsubr
            252 71 vlineto
            181 -252 rlineto
            183 hlineto
            -194 269 rlineto
            127 34 34 82 76 vvcurveto
            166 -130 41 -173 vhcurveto
            -257 -668 hlineto
            return
          </CharString>
          <CharString index="79">
            -85 -76 -28 -73 -104 -70 78 140 141 76 73 95 69 44 -29 -35 22 vhcurveto
            136 56 rlineto
            91 -53 -99 47 -117 hhcurveto
            -202 -138 -133 -211 -213 121 -135 196 return
          </CharString>
          <CharString index="80">
            329 -12 rmoveto
            -86 callgsubr
            hvcurveto
            -77 callgsubr
            -376 vlineto
            -206 79 -98 209 vhcurveto
            return
          </CharString>
          <CharString index="81">
            -87 callgsubr
            63 154 hstem
            151 158 vstem
            57 -104 callsubr
            -124 94 -420 -94 -124 344 40 callsubr
            vlineto
            return
          </CharString>
          <CharString index="82">
            -92 17 rlineto
            -44 8 -17 12 20 vvcurveto
            26 28 14 54 45 38 -10 -36 10 vhcurveto
            128 47 rlineto
            78 -37 -88 32 -95 hhcurveto
            -123 -105 -53 -104 -83 66 -49 96 -16 hvcurveto
            return
          </CharString>
          <CharString index="83">
            rmoveto
            -7 callgsubr
          </CharString>
          <CharString index="84">
            hstem
            265 157 vstem
            -14 callsubr
            return
          </CharString>
          <CharString index="85">
            rmoveto
            26 21 21 26 16 callsubr
            vhcurveto
            endchar
          </CharString>
          <CharString index="86">
            hlineto
            -66 callsubr
            34 56 29 39 5 hvcurveto
            return
          </CharString>
          <CharString index="87">
            -46 callgsubr
            -24 -13 -13 -5 -4 vhcurveto
            return
          </CharString>
          <CharString index="88">
            hstem
            32 557 vstem
            589 hmoveto
            19 callgsubr
            -337 -408 rlineto
            -121 vlineto
            return
          </CharString>
          <CharString index="89">
            rmoveto
            -19 7 -11 13 -13 vhcurveto
            74 -55 rlineto
            125 hlineto
            0 -124 138 -1 1 vhcurveto
            -66 callgsubr
            -29 -27 -27 -29 hvcurveto
            endchar
          </CharString>
          <CharString index="90">
            12 callsubr
            158 8 rmoveto
            36 callgsubr
            -60 -50 43 88 vhcurveto
            return
          </CharString>
          <CharString index="91">
            731 -10 callsubr
          </CharString>
          <CharString index="92">
            -12 callsubr
            endchar
          </CharString>
          <CharString index="93">
            265 260 rmoveto
            -260 157 260 vlineto
            255 408 rlineto
            -185 hlineto
            -149 -257 -149 257 rlineto
            -184 hlineto
            return
          </CharString>
          <CharString index="94">
            vstem
            496 hmoveto
            121 -270 vlineto
            0 callsubr
            vlineto
            return
          </CharString>
          <CharString index="95">
            rmoveto
            -5 callsubr
            -147 -133 rlineto
            return
          </CharString>
          <CharString index="96">
            586 -7 callsubr
            return
          </CharString>
          <CharString index="97">
            rmoveto
            129 hlineto
            -5 callsubr
            endchar
          </CharString>
          <CharString index="98">
            -107 callsubr
            vstem
            44 hmoveto
            514 -78 callgsubr
            return
          </CharString>
          <CharString index="99">
            -97 callsubr
            152 476 vlineto
            5 callsubr
            return
          </CharString>
          <CharString index="100">
            rmoveto
            129 hlineto
            7 callgsubr
            return
          </CharString>
          <CharString index="101">
            32 callgsubr
            16 16 -41 callgsubr
            -109 -133 rlineto
            endchar
          </CharString>
          <CharString index="102">
            67 61 68 -61 rlineto
            129 hlineto
            -148 133 rlineto
            12 -13 -17 7 -19 hhcurveto
            -19 -17 -8 -11 -13 hvcurveto
            return
          </CharString>
          <CharString index="103">
            rmoveto
            -47 callgsubr
            -109 -133 rlineto
            return
          </CharString>
          <CharString index="104">
            89 -15 rlineto
            57 -10 20 -14 -21 vvcurveto
            -31 -45 -15 -49 -57 -45 20 42 -15 vhcurveto
            -129 -47 rlineto
            return
          </CharString>
          <CharString index="105">
            -107 callsubr
            235 167 vstem
            202 hmoveto
            return
          </CharString>
          <CharString index="106">
            59 50 -42 -101 -103 -50 -40 -59 -60 -50 54 92 return
          </CharString>
          <CharString index="107">
            30 callgsubr
            -257 -254 rlineto
            -121 return
          </CharString>
          <CharString index="108">
            142 82 74 97 98 82 -74 18 callsubr
            vhcurveto
            return
          </CharString>
          <CharString index="109">
            -100 callsubr
            63 154 -107 callsubr
            vstem
            return
          </CharString>
          <CharString index="110">
            21 callgsubr
            endchar
          </CharString>
          <CharString index="111">
            -100 callsubr
            58 -101 callsubr
            44 158 return
          </CharString>
          <CharString index="112">
            258 -476 rlineto
            202 668 -153 -476 hlineto
            -258 476 rlineto
            return
          </CharString>
          <CharString index="113">
            109 88 89 109 14 callsubr
            return
          </CharString>
          <CharString index="114">
            73 60 60 73 73 -60 59 -73 -73 -59 -59 -73 -73 59 -60 73 hvcurveto
            return
          </CharString>
          <CharString index="115">
            138 144 79 142 42 callsubr
            hvcurveto
            return
          </CharString>
          <CharString index="116">
            61 callgsubr
            -128 150 -19 hlineto
            return
          </CharString>
          <CharString index="117">
            -381 153 496 return
          </CharString>
          <CharString index="118">
            -23 vhcurveto
            89 -33 rlineto
            23 8 22 11 24 hhcurveto
            23 23 return
          </CharString>
          <CharString index="119">
            54 -38 -61 29 -63 hhcurveto
            -103 -106 -79 -173 hvcurveto
            return
          </CharString>
          <CharString index="120">
            0 133 142 137 125 131 hstem
            return
          </CharString>
          <CharString index="121">
            109 -88 87 -109 -109 -88 -87 -109 return
          </CharString>
          <CharString index="122">
            40 callsubr
            -344 -124 return
          </CharString>
          <CharString index="123">
            26 21 -21 -26 -26 -21 -21 -26 -26 -21 21 26 return
          </CharString>
          <CharString index="124">
            -28 0 128 382 -20 hstem
            41 512 vstem
            return
          </CharString>
          <CharString index="125">
            -142 -142 -82 -74 -98 -97 -82 74 142 return
          </CharString>
          <CharString index="126">
            50 496 rmoveto
            -496 152 255 vlineto
            return
          </CharString>
          <CharString index="127">
            rlineto
            90 hlineto
            77 196 66 callgsubr
            return
          </CharString>
          <CharString index="128">
            -49 9 -21 522 -20 hstem
            40 493 vstem
            return
          </CharString>
          <CharString index="129">
            53 callgsubr
            endchar
          </CharString>
          <CharString index="130">
            -90 callgsubr
            175 147 hintmask 10111110
            return
          </CharString>
          <CharString index="131">
            -529 157 529 215 139 return
          </CharString>
          <CharString index="132">
            139 135 139 116 139 return
          </CharString>
          <CharString index="133">
            177 rmoveto
            -98 299 98 vlineto
            endchar
          </CharString>
          <CharString index="134">
            68 9 51 29 57 hhcurveto
            return
          </CharString>
          <CharString index="135">
            83 -56 35 -120 22 return
          </CharString>
          <CharString index="136">
            hstem
            28 162 244 162 vstem
            return
          </CharString>
          <CharString index="137">
            118 158 -20 hstem
            50 152 return
          </CharString>
          <CharString index="138">
            -243 0 124 256 116 return
          </CharString>
          <CharString index="139">
            32 66 -28 53 hhcurveto
            128 91 97 return
          </CharString>
          <CharString index="140">
            47 40 421 hstem
            53 563 vstem
            return
          </CharString>
          <CharString index="141">
            434 234 hstem
            47 128 return
          </CharString>
          <CharString index="142">
            53 44 43 53 54 -44 44 -53 return
          </CharString>
          <CharString index="143">
            60 0 133 404 131 return
          </CharString>
          <CharString index="144">
            hstemhm
            41 195 -195 416 return
          </CharString>
          <CharString index="145">
            rmoveto
            512 128 -512 hlineto
            return
          </CharString>
          <CharString index="146">
            -42 -13 -39 -2 -54 hhcurveto
            -88 vlineto
            return
          </CharString>
          <CharString index="147">
            124 -92 420 92 124 return
          </CharString>
          <CharString index="148">
            194 0 -20 hstemhm
            41 195 return
          </CharString>
          <CharString index="149">
            138 -132 34 -108 22 return
          </CharString>
          <CharString index="150">
            -21 668 -20 hstem
            44 152 return
          </CharString>
          <CharString index="151">
            hstem
            41 195 vstem
            return
          </CharString>
          <CharString index="152">
            35 334 rmoveto
            return
          </CharString>
        <CharString name=".notdef">
          -95 0 21 659 20 hstem
          50 21 386 20 vstem
          50 hmoveto
          427 700 -427 hlineto
          29 -679 rmoveto
          185 308 185 -308 rlineto
          -378 28 rmoveto
          601 vlineto
          180 -300 rlineto
          206 -303 rmoveto
          -181 303 181 302 rlineto
          -194 -281 rmoveto
          -185 309 rlineto
          371 hlineto
          endchar
        </CharString>
        <CharString name="A">
          -97 callgsubr
          -56 callgsubr
          86 -167 -80 callsubr
        </CharString>
        <CharString name="AE">
          394 0 139 -20 128 28 138 115 139 hstemhm
          481 158 hintmask 10111000
          177 hmoveto
          hintmask 01111000
          80 119 rlineto
          224 hlineto
          hintmask 10111000
          -119 513 139 -355 136 218 138 -218 115 355 139 -513 vlineto
          -476 -667 rlineto
          hintmask 01111000
          336 247 rmoveto
          140 206 rlineto
          -206 vlineto
          endchar
        </CharString>
        <CharString name="Aacute">
          -31 callsubr
          142 484 -106 callsubr
        </CharString>
        <CharString name="Abreve">
          -97 callgsubr
          83 120 -56 callgsubr
          87 63 4 callgsubr
          -1 -230 -80 callsubr
        </CharString>
        <CharString name="Acircumflex">
          -97 callgsubr
          83 152 hstem
          5 680 -1 callgsubr
          274 731 -12 callsubr
          110 -484 46 callgsubr
        </CharString>
        <CharString name="Adieresis">
          -97 callgsubr
          78 141 hstem
          178 -107 callgsubr
          -10 callgsubr
          -82 549 -59 callgsubr
        </CharString>
        <CharString name="Agrave">
          -31 callsubr
          -65 539 -3 callgsubr
        </CharString>
        <CharString name="Amacron">
          -97 callgsubr
          98 98 -56 callgsubr
          -62 78 -50 callsubr
          148 -343 -80 callsubr
        </CharString>
        <CharString name="Aogonek">
          68 -174 76 119 64 callgsubr
          hstem
          434 126 vstem
          5 hmoveto
          172 hlineto
          40 119 rlineto
          256 hlineto
          40 -119 rlineto
          1 -21 callsubr
          30 hlineto
          -253 668 -89 callsubr
          2 -421 46 callgsubr
        </CharString>
        <CharString name="Aring">
          68 21 -21 119 128 529 85 hstem
          213 85 94 86 vstem
          5 hmoveto
          172 hlineto
          40 119 rlineto
          256 hlineto
          40 -119 rlineto
          172 hlineto
          -242 640 rlineto
          21 23 14 32 34 vvcurveto
          73 -60 59 -73 -73 -59 -59 -73 -34 13 -32 21 -24 vhcurveto
          97 -138 rmoveto
          86 -254 rlineto
          -170 hlineto
          38 482 -22 callsubr
        </CharString>
        <CharString name="Atilde">
          -97 callgsubr
          78 79 -74 115 hstemhm
          5 680 hintmask 11101100
          3 callgsubr
          150 731 -86 callsubr
          hintmask 11110100
          -75 callgsubr
          hintmask 11101100
          -74 callgsubr
          hintmask 11110100
          -51 callsubr
          hintmask 11101100
          -58 callsubr
          189 -230 -80 callsubr
        </CharString>
        <CharString name="B">
          25 0 131 151 122 135 129 hstemhm
          44 158 224 164 -140 167 hintmask 11110100
          -97 callsubr
          303 vlineto
          162 108 56 150 81 -44 47 -62 21 hvcurveto
          hintmask 11111000
          50 31 29 47 61 vvcurveto
          140 -109 34 -145 vhcurveto
          12 -386 rmoveto
          hintmask 11110100
          68 34 -28 -47 -47 -34 -29 -68 hvcurveto
          -146 151 hlineto
          139 257 rmoveto
          hintmask 11111000
          53 32 -25 -42 -41 -32 -27 -53 hvcurveto
          -139 135 hlineto
          endchar
        </CharString>
        <CharString name="C">
          59 -93 callgsubr
          -91 callgsubr
          vstem
          369 -12 rmoveto
          126 102 59 95 54 hvcurveto
          -71 callsubr
          -213 126 -133 208 hvcurveto
          endchar
        </CharString>
        <CharString name="Cacute">
          59 -93 callgsubr
          51 154 -36 callsubr
          395 397 -106 callsubr
        </CharString>
        <CharString name="Ccaron">
          59 -93 callgsubr
          45 152 -36 callsubr
          138 543 -100 callgsubr
        </CharString>
        <CharString name="Ccedilla">
          59 -187 50 53 39 33 130 -106 -21 559 130 -96 callgsubr
          169 94 hintmask 11011110
          45 callsubr
          -193 104 -128 174 -22 vhcurveto
          -31 -50 -6 -10 4 -13 10 -5 rlinecurve
          -63 callgsubr
          hintmask 11101110
          22 36 rlineto
          128 102 59 95 54 hvcurveto
          -37 callsubr
          hintmask 11011110
          55 callgsubr
          hvcurveto
          endchar
        </CharString>
        <CharString name="Cdotaccent">
          59 -93 callgsubr
          46 141 -91 callgsubr
          96 141 vstem
          369 -12 rmoveto
          126 102 59 95 54 hvcurveto
          -71 callsubr
          56 callgsubr
          hvcurveto
          -71 808 -106 callgsubr
          endchar
        </CharString>
        <CharString name="D">
          36 callsubr
          hstem
          44 -70 callgsubr
          264 hmoveto
          218 169 79 255 254 -169 80 -218 hvcurveto
          -220 -668 hlineto
          158 133 rmoveto
          404 65 vlineto
          33 callgsubr
          endchar
        </CharString>
        <CharString name="Dcaron">
          36 callsubr
          57 152 hstem
          44 -70 callgsubr
          44 hmoveto
          220 hlineto
          218 169 79 255 254 -169 80 -218 hvcurveto
          -220 hlineto
          223 -131 rmoveto
          115 106 -27 -176 -176 -106 -25 -115 hvcurveto
          -65 404 hlineto
          -68 340 -100 callgsubr
        </CharString>
        <CharString name="Dcroat">
          159 13 callsubr
          143 -70 callgsubr
          25 -14 callgsubr
        </CharString>
        <CharString name="E">
          -100 callsubr
          -9 callsubr
          endchar
        </CharString>
        <CharString name="Eacute">
          2 callsubr
          558 hmoveto
          139 -356 135 217 139 -217 116 356 139 -514 -668 vlineto
          176 731 -58 callgsubr
        </CharString>
        <CharString name="Ecaron">
          -100 callsubr
          57 152 -9 callsubr
          208 76 rmoveto
          -51 callgsubr
          -129 hlineto
          endchar
        </CharString>
        <CharString name="Ecircumflex">
          -100 callsubr
          63 152 -107 callsubr
          vstem
          -70 callsubr
          -453 63 -10 callsubr
        </CharString>
        <CharString name="Edieresis">
          4 callsubr
          -68 -107 callgsubr
          hintmask 11101000
          -70 callsubr
          hintmask 11110110
          -424 128 -101 callgsubr
        </CharString>
        <CharString name="Edotaccent">
          4 callsubr
          29 141 hintmask 11101000
          -70 callsubr
          hintmask 11111100
          -327 128 -106 callgsubr
          endchar
        </CharString>
        <CharString name="Egrave">
          2 callsubr
          44 hmoveto
          514 -78 callgsubr
          122 -69 callsubr
        </CharString>
        <CharString name="Emacron">
          -100 callsubr
          79 98 hstem
          44 158 vstem
          44 hmoveto
          514 -78 callgsubr
          108 26 callsubr
        </CharString>
        <CharString name="Eogonek">
          -42 -174 76 98 25 callsubr
          -107 callsubr
          98 126 vstem
          44 hmoveto
          336 -21 callsubr
          37 -78 callgsubr
          endchar
        </CharString>
        <CharString name="Eth">
          147 13 callsubr
          131 -70 callgsubr
          13 -14 callgsubr
        </CharString>
        <CharString name="Euro">
          106 -12 130 113 74 61 74 110 130 hstem
          131 150 vstem
          131 366 rmoveto
          -61 -49 vlineto
          -40 -74 rlineto
          98 hlineto
          -152 32 105 -91 155 hhcurveto
          115 92 59 95 48 hvcurveto
          -128 47 rlineto
          -54 -26 -54 -17 -46 hhcurveto
          -62 -51 39 74 -24 hvcurveto
          73 hlineto
          40 74 rlineto
          -127 hlineto
          9 -1 10 10 vvcurveto
          11 1 11 1 10 vhcurveto
          160 hlineto
          41 74 rlineto
          -186 hlineto
          70 24 50 40 59 hhcurveto
          49 49 -22 -50 26 hvcurveto
          129 47 rlineto
          94 -46 -88 61 -114 hhcurveto
          -153 -108 -91 -149 -34 hvcurveto
          -60 hlineto
          -40 -74 rlineto
          endchar
        </CharString>
        <CharString name="F">
          -78 21 -21 274 139 116 139 -107 callsubr
          vstem
          44 hmoveto
          158 274 320 139 -320 116 320 139 -478 hlineto
          endchar
        </CharString>
        <CharString name="G">
          -55 callsubr
          -96 callgsubr
          323 158 hintmask 10111100
          352 -12 rmoveto
          96 66 28 58 43 hvcurveto
          hintmask 01111100
          22 -74 rlineto
          104 378 -308 -128 150 -19 hlineto
          hintmask 10111100
          -28 callsubr
          hvcurveto
          endchar
        </CharString>
        <CharString name="Gbreve">
          -55 callsubr
          51 120 -96 callgsubr
          323 158 hintmask 10111110
          22 callgsubr
          hintmask 01111110
          9 callsubr
          hintmask 10111110
          -8 callgsubr
          340 395 1 callgsubr
        </CharString>
        <CharString name="Gdotaccent">
          -55 callsubr
          46 141 -96 callgsubr
          103 141 79 158 hintmask 10110111
          22 callgsubr
          hintmask 01110111
          9 callsubr
          hintmask 10110111
          -8 callgsubr
          hintmask 10111111
          341 390 3 callsubr
        </CharString>
        <CharString name="H">
          57 21 -21 274 139 255 -20 -107 callsubr
          275 158 vstem
          202 hmoveto
          274 275 -274 158 668 -158 -255 -275 255 -158 -668 vlineto
          endchar
        </CharString>
        <CharString name="Hbar">
          118 21 -21 274 139 83 98 -98 172 hstemhm
          75 158 275 157 hintmask 11011100
          15 496 rmoveto
          60 -496 158 274 275 -274 158 hlineto
          -1 496 rlineto
          60 hlineto
          hintmask 11101100
          98 -59 42 callgsubr
          -275 42 callgsubr
          -60 vlineto
          493 -98 rmoveto
          -83 -275 83 vlineto
          endchar
        </CharString>
        <CharString name="I">
          -87 callgsubr
          hstem
          151 158 vstem
          151 544 rmoveto
          -420 -94 -124 344 15 callsubr
          vlineto
          endchar
        </CharString>
        <CharString name="Iacute">
          -26 callsubr
          -113 63 -106 callsubr
        </CharString>
        <CharString name="Icircumflex">
          -87 callgsubr
          63 152 hstem
          151 158 vstem
          401 hmoveto
          124 -92 420 92 124 -344 -124 94 -420 -94 -124 vlineto
          -24 -16 callsubr
        </CharString>
        <CharString name="Idieresis">
          -87 callgsubr
          58 -101 callsubr
          62 141 -52 158 -53 140 hintmask 11001000
          57 hmoveto
          344 -63 callsubr
          -94 hlineto
          hintmask 11110100
          5 672 -101 callgsubr
        </CharString>
        <CharString name="Igrave">
          -26 callsubr
          -322 -69 callsubr
        </CharString>
        <CharString name="Imacron">
          -87 callgsubr
          79 98 hstemhm
          80 299 -228 158 hintmask 11101000
          57 124 rmoveto
          -124 344 -63 callsubr
          vlineto
          hintmask 11110000
          -71 623 -50 callsubr
          endchar
        </CharString>
        <CharString name="Iogonek">
          -164 -174 76 98 124 420 124 hstemhm
          57 155 -61 158 hintmask 01101000
          hintmask 11110000
          166 hmoveto
          -39 -12 -41 -27 -46 -88 callsubr
          34 56 29 39 5 hvcurveto
          hintmask 01101000
          94 -63 callsubr
          hlineto
          hintmask 01110000
          -94 -124 hlineto
          endchar
        </CharString>
        <CharString name="J">
          -62 -12 125 555 -20 hstem
          358 158 vstem
          255 -12 rmoveto
          171 90 101 167 hvcurveto
          412 -158 -412 vlineto
          -107 -37 -36 -66 -63 -31 58 57 -11 vhcurveto
          -145 -53 rlineto
          -113 28 82 -74 140 hhcurveto
          endchar
        </CharString>
        <CharString name="K">
          37 -105 callgsubr
          -107 callsubr
          vstem
          -97 callsubr
          158 197 vlineto
          68 75 196 -272 rlineto
          183 hlineto
          -277 382 264 286 rlineto
          -193 hlineto
          -241 -265 rlineto
          265 vlineto
          endchar
        </CharString>
        <CharString name="L">
          -85 0 139 529 -20 -107 callsubr
          vstem
          202 139 rmoveto
          529 -158 47 callgsubr
          vlineto
          endchar
        </CharString>
        <CharString name="Lcaron">
          -85 0 139 364 165 -107 callsubr
          vstem
          -97 callsubr
          478 139 -320 529 vlineto
          32 -165 rmoveto
          80 hlineto
          -85 callsubr
          endchar
        </CharString>
        <CharString name="Lslash">
          -36 0 139 529 -20 hstem
          93 158 vstem
          13 300 rmoveto
          -122 vlineto
          80 48 rlineto
          -226 478 139 -320 182 vlineto
          160 95 rlineto
          122 vlineto
          -160 -97 rlineto
          227 -158 -321 vlineto
          endchar
        </CharString>
        <CharString name="M">
          220 21 -21 525 143 hstem
          44 153 447 154 vstem
          -97 callsubr
          153 525 vlineto
          158 -525 rlineto
          130 hlineto
          159 525 rlineto
          -525 154 668 -237 vlineto
          -141 -479 -139 479 rlineto
          endchar
        </CharString>
        <CharString name="N">
          78 21 43 callsubr
          307 153 vstem
          -8 callsubr
          endchar
        </CharString>
        <CharString name="NULL">
          -622 endchar
        </CharString>
        <CharString name="Nacute">
          78 -105 callgsubr
          83 154 50 callgsubr
          44 hmoveto
          152 476 hlineto
          5 callsubr
          -201 hlineto
          393 63 -106 callsubr
        </CharString>
        <CharString name="Ncaron">
          78 -105 callgsubr
          77 152 50 callgsubr
          196 hmoveto
          476 vlineto
          258 -476 rlineto
          202 668 -153 -476 hlineto
          -258 476 rlineto
          -201 -668 hlineto
          257 744 -99 callgsubr
        </CharString>
        <CharString name="Ntilde">
          78 -105 callgsubr
          78 -84 callgsubr
          44 152 307 153 hintmask 11011100
          -8 callsubr
          2 63 rmoveto
          -61 callsubr
          hintmask 11101100
          -55 callgsubr
          hintmask 11011100
          -60 callsubr
        </CharString>
        <CharString name="O">
          -99 callsubr
          -18 callgsubr
          endchar
        </CharString>
        <CharString name="OE">
          439 -12 130 -118 139 136 138 115 140 -119 131 -96 callgsubr
          359 122 hintmask 10110110
          381 -12 rmoveto
          68 61 15 28 51 hvcurveto
          hintmask 01110110
          -31 478 139 -356 136 218 138 -218 115 356 140 -478 -31 vlineto
          hintmask 10101110
          28 -51 -61 15 -68 hhcurveto
          -68 callgsubr
          -209 141 -137 205 hvcurveto
          561 vmoveto
          98 82 -73 18 callsubr
          142 82 73 97 hvcurveto
          endchar
        </CharString>
        <CharString name="Oacute">
          -41 callsubr
          118 397 -58 callgsubr
        </CharString>
        <CharString name="Ocircumflex">
          -99 callsubr
          51 152 -18 callgsubr
          114 397 -15 callsubr
        </CharString>
        <CharString name="Odieresis">
          -99 callsubr
          46 141 -96 callgsubr
          13 -107 callgsubr
          12 168 hintmask 11101010
          hintmask 11111010
          -48 callgsubr
          167 hmoveto
          1 callsubr
          hintmask 11101110
          13 462 -101 callgsubr
        </CharString>
        <CharString name="Ograve">
          -41 callsubr
          44 452 -3 callgsubr
        </CharString>
        <CharString name="Ohungarumlaut">
          -99 callsubr
          65 153 -11 callgsubr
          562 vmoveto
          15 callgsubr
          -58 195 rmoveto
          -47 callgsubr
          -109 -133 rlineto
          316 hmoveto
          75 55 rlineto
          12 10 7 16 16 -41 callgsubr
          -109 -133 rlineto
          endchar
        </CharString>
        <CharString name="Oslash">
          141 -12 130 431 130 -91 callgsubr
          358 168 vstem
          120 95 rmoveto
          -50 -59 56 -48 50 58 rlineto
          -37 56 70 -21 78 hhcurveto
          205 143 138 208 100 -34 85 -59 60 hvcurveto
          44 52 -56 48 -45 -53 rlineto
          34 -55 -67 19 -76 hhcurveto
          -204 -141 -138 -207 -97 31 -83 54 -59 hvcurveto
          152 62 rmoveto
          260 302 rlineto
          18 -33 10 -42 -50 vvcurveto
          -142 -82 -74 -98 -41 -36 14 25 -31 vhcurveto
          108 392 rmoveto
          38 36 -11 -22 29 hvcurveto
          -257 -299 rlineto
          -15 32 -9 39 46 vvcurveto
          141 82 74 96 vhcurveto
          endchar
        </CharString>
        <CharString name="Otilde">
          -99 callsubr
          49 -84 callgsubr
          35 167 359 168 hintmask 11011100
          -48 callgsubr
          346 216 rmoveto
          15 callgsubr
          -100 184 rmoveto
          -35 callsubr
        </CharString>
        <CharString name="P">
          12 21 -21 232 131 172 133 -2 callsubr
          232 99 vlineto
          173 130 43 175 175 -130 43 -173 hvcurveto
          -257 -668 hlineto
          158 535 rmoveto
          104 hlineto
          73 58 -15 -70 -71 -58 -16 -73 hvcurveto
          -104 hlineto
          endchar
        </CharString>
        <CharString name="Q">
          159 -93 callgsubr
          hstem
          35 167 359 168 vstem
          381 -12 rmoveto
          81 71 21 39 56 hvcurveto
          109 -103 83 89 -107 101 rlineto
          35 54 20 68 77 vvcurveto
          208 -143 138 -205 -68 callgsubr
          -208 141 -138 205 vhcurveto
          562 vmoveto
          98 82 -74 -142 -31 -3 -27 -8 -25 hvcurveto
          -129 121 -83 -87 143 -136 rlineto
          -20 -28 -35 -11 -37 hhcurveto
          -97 -82 74 142 142 82 74 97 hvcurveto
          endchar
        </CharString>
        <CharString name="R">
          -40 callgsubr
          -29 callsubr
          158 535 rmoveto
          104 hlineto
          74 57 -14 -62 -62 -57 -13 -74 hvcurveto
          -104 hlineto
          endchar
        </CharString>
        <CharString name="Racute">
          -40 callgsubr
          63 154 -29 callsubr
          262 535 rmoveto
          44 callgsubr
          151 hlineto
          185 196 -106 callsubr
        </CharString>
        <CharString name="Rcaron">
          -40 callgsubr
          57 152 -107 callsubr
          235 167 vstem
          44 hmoveto
          158 252 71 hlineto
          181 -252 rlineto
          183 hlineto
          -194 269 rlineto
          127 34 34 82 76 vvcurveto
          166 -130 41 -173 vhcurveto
          -257 hlineto
          262 -133 rmoveto
          44 callgsubr
          151 hlineto
          56 209 -99 callgsubr
        </CharString>
        <CharString name="S">
          -54 callsubr
          hstem
          28 162 244 162 vstem
          25 157 rmoveto
          -79 callsubr
          -40 callsubr
          endchar
        </CharString>
        <CharString name="Sacute">
          -54 callsubr
          51 154 29 callsubr
          314 -12 rmoveto
          138 144 79 142 42 callsubr
          hvcurveto
          -16 callgsubr
          -144 -52 rlineto
          -79 callsubr
          65 743 -106 callsubr
        </CharString>
        <CharString name="Scaron">
          -54 callsubr
          45 152 29 callsubr
          25 157 rmoveto
          -79 callsubr
          -40 callsubr
          93 535 -99 callgsubr
        </CharString>
        <CharString name="Scedilla">
          -3 -187 50 53 39 34 126 -105 -21 564 127 hstemhm
          28 162 152 94 -2 162 hintmask 11011101
          25 157 rmoveto
          hintmask 11011110
          38 -99 90 -61 129 -8 -29 -48 rcurveline
          -49 callsubr
          5 -3 6 -1 6 2 rrcurveto
          3 9 10 2 8 hhcurveto
          22 15 -10 -16 -20 -20 -7 -24 -24 -26 7 6 -11 hvcurveto
          -16 -50 rlineto
          -8 25 31 -5 32 hhcurveto
          64 63 22 58 46 -48 16 -38 -14 -11 -1 -2 -9 hvcurveto
          23 37 rlineto
          hintmask 11011101
          130 9 127 77 134 vvcurveto
          138 -132 34 -108 22 vhcurveto
          -90 18 rlineto
          -46 9 -30 25 34 vvcurveto
          41 46 23 61 63 46 -25 -45 18 vhcurveto
          143 52 rlineto
          103 -42 -106 42 -108 hhcurveto
          -134 -149 -64 -143 -114 94 -53 109 -21 hvcurveto
          81 -16 rlineto
          hintmask 11101101
          72 -14 50 -23 -47 vvcurveto
          -52 -62 -18 -57 -74 -54 30 64 -18 vhcurveto
          endchar
        </CharString>
        <CharString name="T">
          -5 21 -21 529 139 hstem
          230 157 vstem
          230 529 rmoveto
          -529 157 529 215 139 -587 -139 vlineto
          endchar
        </CharString>
        <CharString name="Tcaron">
          -5 21 -21 529 139 57 152 hstem
          230 157 vstem
          230 529 rmoveto
          24 callsubr
          -587 -139 vlineto
          244 215 -99 callgsubr
        </CharString>
        <CharString name="Thorn">
          1 21 -21 128 141 156 137 105 -20 hstem
          44 159 223 167 vstem
          44 hmoveto
          159 128 88 hlineto
          172 130 42 173 176 -130 43 -172 hvcurveto
          -88 105 -159 hlineto
          159 -398 rmoveto
          156 93 vlineto
          72 58 -8 -71 -68 -58 -9 -72 hvcurveto
          endchar
        </CharString>
        <CharString name="U">
          -102 callsubr
          -72 callsubr
          endchar
        </CharString>
        <CharString name="Uacute">
          -102 callsubr
          83 154 43 callgsubr
          668 rmoveto
          -376 vlineto
          -206 79 -98 209 -86 callgsubr
          vhcurveto
          -6 callgsubr
          vlineto
          192 63 -106 callsubr
        </CharString>
        <CharString name="Ucircumflex">
          -102 callsubr
          83 152 -72 callsubr
          220 63 -15 callsubr
        </CharString>
        <CharString name="Udieresis">
          -102 callsubr
          78 -101 callsubr
          41 158 -37 -107 callgsubr
          -38 158 hintmask 11110010
          -27 callsubr
          hintmask 11101100
          -96 738 -24 callsubr
        </CharString>
        <CharString name="Ugrave">
          -102 callsubr
          83 154 -72 callsubr
          131 -69 callsubr
        </CharString>
        <CharString name="Uhungarumlaut">
          -102 callsubr
          98 153 hstem
          41 158 259 -46 callsubr
          292 rmoveto
          -206 79 -98 209 -86 callgsubr
          vhcurveto
          -77 callgsubr
          vlineto
          115 78 -73 callsubr
        </CharString>
        <CharString name="Umacron">
          -102 callsubr
          99 98 hstem
          41 158 259 -46 callsubr
          292 rmoveto
          -206 79 -98 209 -86 callgsubr
          vhcurveto
          -77 callgsubr
          vlineto
          138 26 callsubr
        </CharString>
        <CharString name="Uogonek">
          35 -174 76 110 -21 677 -20 hstemhm
          41 158 16 126 117 158 hintmask 11110100
          41 668 rmoveto
          -376 vlineto
          -186 64 -98 166 -17 vhcurveto
          hintmask 11111100
          -30 -15 -26 -24 -37 -88 callsubr
          27 36 24 34 11 hvcurveto
          146 24 59 98 176 vvcurveto
          376 -158 -389 vlineto
          -99 -19 -63 -110 vhcurveto
          hintmask 11110100
          -111 -19 63 99 hvcurveto
          389 vlineto
          endchar
        </CharString>
        <CharString name="Uring">
          35 -12 129 529 86 -64 -20 178 85 hstemhm
          41 158 -3 85 94 86 -3 158 hintmask 10111001
          -27 callsubr
          hintmask 11010110
          -1 658 rmoveto
          7 callsubr
          180 vmoveto
          16 callsubr
          26 21 21 26 hvcurveto
          endchar
        </CharString>
        <CharString name="V">
          34 21 -21 -95 callgsubr
          10 636 vstem
          236 hmoveto
          183 hlineto
          227 668 rlineto
          -165 hlineto
          -154 -491 -153 491 rlineto
          -164 hlineto
          endchar
        </CharString>
        <CharString name="W">
          261 -105 callgsubr
          hstem
          10 863 vstem
          171 hmoveto
          169 hlineto
          101 470 102 -470 rlineto
          169 hlineto
          161 668 rlineto
          -158 hlineto
          -93 -463 -99 463 rlineto
          -164 hlineto
          -98 -463 -93 463 rlineto
          -158 hlineto
          endchar
        </CharString>
        <CharString name="X">
          77 -105 callgsubr
          hstem
          10 679 vstem
          200 hmoveto
          149 211 150 -211 rlineto
          190 hlineto
          -245 343 231 325 rlineto
          -189 hlineto
          -137 -192 -136 192 rlineto
          -189 hlineto
          231 -325 -245 -343 rlineto
          endchar
        </CharString>
        <CharString name="Y">
          65 -105 callgsubr
          -23 callsubr
          endchar
        </CharString>
        <CharString name="Yacute">
          65 -105 callgsubr
          83 154 -23 callsubr
          396 63 -106 callsubr
        </CharString>
        <CharString name="Ydieresis">
          65 -105 callgsubr
          78 -101 callsubr
          177 141 -53 157 -51 140 hintmask 11101000
          -14 callsubr
          hintmask 11110100
          167 128 -59 callgsubr
        </CharString>
        <CharString name="Z">
          -81 callsubr
          hstem
          32 557 vstem
          574 547 rmoveto
          121 -527 -139 322 vlineto
          -337 -408 rlineto
          -121 557 139 -349 vlineto
          endchar
        </CharString>
        <CharString name="Zacute">
          -81 callsubr
          63 154 -19 callsubr
          347 731 -106 callsubr
        </CharString>
        <CharString name="Zcaron">
          -81 callsubr
          57 152 -19 callsubr
          82 877 -100 callgsubr
        </CharString>
        <CharString name="Zdotaccent">
          -81 callsubr
          58 -94 callgsubr
          241 141 vstem
          32 121 rmoveto
          -121 557 19 callgsubr
          -57 197 3 callsubr
        </CharString>
        <CharString name="a">
          -74 -12 37 callgsubr
          175 147 hintmask 10111100
          -89 callgsubr
          hintmask 01111100
          -13 callgsubr
          hintmask 10111100
          -73 callgsubr
          endchar
        </CharString>
        <CharString name="aacute">
          -102 callgsubr
          64 153 -75 callsubr
          161 232 -84 callsubr
          -6 354 -103 callsubr
        </CharString>
        <CharString name="abreve">
          -102 callgsubr
          59 120 -75 callsubr
          -46 701 6 callgsubr
          -53 -544 17 callgsubr
        </CharString>
        <CharString name="acircumflex">
          -102 callgsubr
          64 152 -75 callsubr
          -107 -11 callsubr
          121 -486 -84 callsubr
          endchar
        </CharString>
        <CharString name="acute">
          -308 574 153 hstem
          53 208 vstem
          53 574 -79 callgsubr
        </CharString>
        <CharString name="acute.case">
          -423 731 154 hstem
          44 218 vstem
          44 731 -58 callgsubr
        </CharString>
        <CharString name="adieresis">
          -102 callgsubr
          68 141 -90 callgsubr
          -59 -107 callgsubr
          -100 147 hintmask 1011110010000000
          -89 callgsubr
          hintmask 0111110010000000
          -13 callgsubr
          hintmask 1011110010000000
          -73 callgsubr
          hintmask 0111101100000000
          -234 428 -59 callgsubr
        </CharString>
        <CharString name="ae">
          256 -12 118 -117 102 118 90 97 114 -103 103 -90 callgsubr
          172 139 -136 137 226 142 hintmask 0111011010000000
          190 -11 rmoveto
          76 -6 73 22 43 42 6 6 6 7 6 7 rrcurveto
          hintmask 1011010110000000
          -51 49 71 -28 87 hhcurveto
          81 84 34 77 52 hvcurveto
          -120 44 rlineto
          -22 -20 -34 -15 -48 hhcurveto
          -55 -55 33 70 -4 hvcurveto
          368 hlineto
          176 10 -102 125 -164 hhcurveto
          -59 -55 -17 -31 -44 hvcurveto
          hintmask 1011011010000000
          34 -38 -56 14 -70 hhcurveto
          -114 -80 -50 -66 -33 hvcurveto
          128 -46 rlineto
          hintmask 0110111010000000
          40 10 34 19 42 hhcurveto
          53 30 -21 -57 hvcurveto
          -29 vlineto
          -268 -61 -82 -83 -90 78 -49 93 -7 hvcurveto
          hintmask 1011011010000000
          414 407 rmoveto
          60 -65 callgsubr
          -227 hlineto
          68 9 52 29 56 hhcurveto
          hintmask 0111010110000000
          -253 -187 rmoveto
          -1 vlineto
          -91 -45 -26 -60 -40 -30 25 32 52 65 10 110 -1 vhcurveto
          endchar
        </CharString>
        <CharString name="agrave">
          -102 callgsubr
          64 154 23 callsubr
          19 134 rmoveto
          -90 77 -56 94 71 58 20 52 37 vhcurveto
          hintmask 01111110
          -95 callsubr
          157 11 rmoveto
          -30 callgsubr
          -12 vlineto
          hintmask 10111110
          -37 callgsubr
          vhcurveto
          -31 526 -68 callsubr
        </CharString>
        <CharString name="amacron">
          -102 callgsubr
          60 98 hstemhm
          19 157 -38 299 -86 147 hintmask 10111101
          45 callgsubr
          hintmask 01111101
          -95 callsubr
          hintmask 10111010
          -90 77 -56 94 vhcurveto
          247 582 rmoveto
          98 -299 -98 vlineto
          hintmask 10111101
          38 -425 17 callgsubr
        </CharString>
        <CharString name="ampersand">
          80 -13 125 -112 145 -124 -21 592 114 hstemhm
          24 159 -62 139 134 127 hintmask 10011010
          24 191 rmoveto
          -105 99 -99 143 63 71 19 47 76 vhcurveto
          hintmask 00111010
          46 -53 rlineto
          176 hlineto
          hintmask 01010110
          -125 145 43 56 41 89 16 99 rlinecurve
          -127 hlineto
          -12 -57 -20 -48 -25 -40 -94 108 rcurveline
          91 56 35 65 58 vvcurveto
          96 -95 79 -97 -118 -90 -69 -101 -45 18 -52 43 -54 vhcurveto
          hintmask 10011010
          -111 -47 -47 -75 -72 vvcurveto
          159 6 rmoveto
          34 24 36 59 23 vhcurveto
          126 -144 rlineto
          -23 -37 -38 -11 -31 hhcurveto
          -60 -43 40 45 hvcurveto
          140 395 rmoveto
          41 30 -28 -36 -29 -21 -35 -51 -27 hvcurveto
          hintmask 10010110
          -45 39 -17 35 26 vvcurveto
          34 28 21 35 vhcurveto
          endchar
        </CharString>
        <CharString name="aogonek">
          -74 -174 76 86 37 callgsubr
          118 126 -69 147 hintmask 11011101
          -89 callgsubr
          hintmask 10111101
          18 -60 rlineto
          hintmask 11011110
          -66 callsubr
          hvcurveto
          hintmask 10111101
          -78 callsubr
          vhcurveto
          -52 callgsubr
          332 86 rmoveto
          -12 vlineto
          hintmask 11011101
          -73 callgsubr
          endchar
        </CharString>
        <CharString name="approxequal">
          -90 59 123 -64 125 14 123 -63 124 hstemhm
          41 104 -104 450 -104 104 hintmask 01010100
          hintmask 01011000
          145 57 rmoveto
          51 1 18 10 21 hhcurveto
          hintmask 10010010
          57 47 -59 70 hhcurveto
          88 35 55 92 9 hvcurveto
          -104 38 rlineto
          -51 -1 -19 -11 -20 hhcurveto
          hintmask 01011000
          -48 -48 61 -76 hhcurveto
          -89 -36 -57 -91 -9 hvcurveto
          199 vmoveto
          104 -38 rlineto
          51 1 18 10 21 hhcurveto
          hintmask 01100010
          57 47 -60 70 hhcurveto
          88 35 56 91 9 hvcurveto
          -104 37 rlineto
          -50 -1 -19 -11 -20 hhcurveto
          hintmask 01010100
          -48 -48 61 -76 hhcurveto
          hintmask 01011000
          -89 -36 -57 -90 -9 hvcurveto
          endchar
        </CharString>
        <CharString name="aring">
          -102 callgsubr
          25 86 94 85 -90 callgsubr
          -21 85 94 86 -69 147 hintmask 1011111001000000
          -89 callgsubr
          hintmask 0111111001000000
          -95 callsubr
          268 401 rmoveto
          hintmask 0111110110000000
          7 callsubr
          hintmask 1011111001000000
          64 -315 -84 callsubr
          hintmask 0111110110000000
          -111 448 -22 callsubr
        </CharString>
        <CharString name="asciicircum">
          -33 -95 callgsubr
          53 483 vstem
          196 312 rmoveto
          99 194 98 -194 rlineto
          143 hlineto
          -185 356 rlineto
          -113 hlineto
          -185 -356 rlineto
          endchar
        </CharString>
        <CharString name="asciitilde">
          -89 167 123 -63 123 hstemhm
          40 105 -105 453 -106 106 hintmask 01010000
          hintmask 01100000
          40 184 rmoveto
          105 -38 rlineto
          68 -3 20 13 24 hhcurveto
          hintmask 10001000
          57 46 -60 70 hhcurveto
          94 33 63 103 7 hvcurveto
          -106 37 rlineto
          -66 4 -21 -14 -23 hhcurveto
          hintmask 01010000
          -48 -48 60 -75 hhcurveto
          hintmask 01100000
          -95 -34 -63 -103 -7 hvcurveto
          endchar
        </CharString>
        <CharString name="asterisk">
          -188 -95 callgsubr
          173 88 vstem
          383 515 rmoveto
          -28 83 -94 -31 rlineto
          101 -88 -101 vlineto
          -96 31 -27 -83 96 -31 -59 -82 71 -51 59 81 59 -81 71 51 -59 82 rlineto
          endchar
        </CharString>
        <CharString name="at">
          132 -12 70 95 87 -85 95 177 91 -20 -20 132 70 hstemhm
          35 69 96 97 122 94 129 77 hintmask 1100111111000000
          35 38 callgsubr
          48 47 10 18 41 vhcurveto
          78 vlineto
          -24 -42 -43 -12 -48 hhcurveto
          -154 -125 122 153 151 122 126 154 143 119 -108 -146 hvcurveto
          -13 vlineto
          -72 -5 -37 -31 -33 hhcurveto
          -28 -26 23 46 hvcurveto
          189 vlineto
          hintmask 1011011111000000
          12 -37 -42 8 -40 hhcurveto
          -101 -93 -49 -152 -106 67 -56 70 42 44 21 43 31 hvcurveto
          hintmask 1101011111000000
          -43 17 42 -23 46 hhcurveto
          72 82 57 128 6 hvcurveto
          12 vlineto
          187 -153 143 -184 -192 -155 -156 -190 vhcurveto
          262 -15 rmoveto
          89 43 19 42 13 13 -2 -2 11 vhcurveto
          -84 vlineto
          hintmask 1010111111000000
          -59 -35 -30 -32 -29 -26 23 46 vhcurveto
          endchar
        </CharString>
        <CharString name="atilde">
          -102 callgsubr
          59 79 -74 115 -90 callgsubr
          175 147 hintmask 10110111
          -89 callgsubr
          hintmask 01110111
          -95 callsubr
          76 440 -86 callsubr
          hintmask 01111011
          -75 callgsubr
          hintmask 01110111
          -74 callgsubr
          hintmask 01111011
          -51 callsubr
          hintmask 10110111
          -58 callsubr
          256 -354 -84 callsubr
          endchar
        </CharString>
        <CharString name="b">
          -26 -69 callgsubr
          158 -20 hstemhm
          50 152 212 158 hintmask 01111100
          50 668 rmoveto
          -668 133 vlineto
          19 67 rlineto
          hintmask 10111100
          -55 32 66 -24 53 hhcurveto
          128 91 102 162 162 -91 96 62 callgsubr
          240 vlineto
          -7 -419 rmoveto
          101 50 42 60 59 50 -49 -91 -92 -50 -54 -59 -60 -50 40 103 vhcurveto
          endchar
        </CharString>
        <CharString name="backslash">
          -180 -77 callsubr
          412 vstem
          168 -104 callsubr
          -153 hlineto
          261 -668 rlineto
          151 hlineto
          endchar
        </CharString>
        <CharString name="bar">
          -388 -95 callgsubr
          44 146 vstem
          190 -161 rmoveto
          829 -146 -829 vlineto
          endchar
        </CharString>
        <CharString name="braceleft">
          28 callgsubr
          24 120 -50 144 hintmask 11101000
          94 97 rmoveto
          -95 vlineto
          -130 72 -33 119 vhcurveto
          51 120 -33 hlineto
          -42 -23 7 37 hvcurveto
          125 vlineto
          85 -45 27 -49 13 vhcurveto
          3 vlineto
          49 13 45 28 84 vvcurveto
          123 vlineto
          37 23 7 42 vhcurveto
          33 120 -51 hlineto
          -119 -72 -33 -129 hvcurveto
          -96 vlineto
          -57 -8 -37 -62 vhcurveto
          hintmask 11110000
          -123 vlineto
          hintmask 11101000
          62 8 -37 -59 hvcurveto
          endchar
        </CharString>
        <CharString name="braceright">
          28 callgsubr
          133 144 -51 120 hintmask 11110000
          34 -161 rmoveto
          52 hlineto
          119 72 33 130 hvcurveto
          95 vlineto
          59 8 37 61 vhcurveto
          hintmask 11101000
          123 vlineto
          hintmask 11110000
          -61 -8 37 57 hvcurveto
          96 vlineto
          129 -72 33 -119 vhcurveto
          -52 -120 34 hlineto
          42 23 -7 -37 hvcurveto
          -123 vlineto
          -84 44 -28 49 -13 vhcurveto
          -3 vlineto
          -49 -13 -44 -27 -85 vvcurveto
          -125 vlineto
          -37 -23 -7 -42 vhcurveto
          -34 hlineto
          endchar
        </CharString>
        <CharString name="bracketleft">
          40 callgsubr
          44 128 vstem
          44 -161 rmoveto
          256 115 -128 598 128 116 -256 hlineto
          endchar
        </CharString>
        <CharString name="bracketright">
          40 callgsubr
          161 128 vstem
          289 -161 rmoveto
          829 -256 -116 128 -598 -128 -115 vlineto
          endchar
        </CharString>
        <CharString name="breve">
          -249 569 120 hstem
          57 287 vstem
          57 689 5 callgsubr
        </CharString>
        <CharString name="breve.case">
          -292 731 120 hstem
          26 287 vstem
          26 851 5 callgsubr
        </CharString>
        <CharString name="brokenbar">
          -406 -161 311 208 310 0 -20 hstemhm
          44 128 hintmask 10110000
          172 -161 rmoveto
          311 -128 -311 vlineto
          829 vmoveto
          hintmask 11010000
          -310 128 310 vlineto
          endchar
        </CharString>
        <CharString name="bullet">
          -184 88 332 hstem
          53 332 vstem
          53 254 rmoveto
          -91 74 -75 92 92 74 75 91 92 -74 74 -92 -92 -74 -74 -92 vhcurveto
          endchar
        </CharString>
        <CharString name="c">
          -102 -105 callsubr
          -92 callgsubr
          -12 callgsubr
          endchar
        </CharString>
        <CharString name="cacute">
          -102 -105 callsubr
          64 153 -92 callgsubr
          vstem
          278 -12 rmoveto
          79 92 30 90 51 hvcurveto
          -80 callgsubr
          -157 90 -106 164 hvcurveto
          54 586 -103 callsubr
        </CharString>
        <CharString name="caron">
          -155 568 152 hstem
          37 393 vstem
          37 720 -100 callgsubr
        </CharString>
        <CharString name="caron.case">
          -227 725 152 hstem
          1 393 vstem
          1 877 -100 callgsubr
        </CharString>
        <CharString name="caron.salt">
          -417 496 192 hstem
          40 135 vstem
          120 496 rmoveto
          -85 callsubr
          -24 -145 rlineto
          endchar
        </CharString>
        <CharString name="ccaron">
          -102 -105 callsubr
          58 152 -92 callgsubr
          vstem
          24 251 rmoveto
          -157 90 -106 164 79 92 30 90 51 vhcurveto
          -80 callgsubr
          hvcurveto
          211 336 -99 callgsubr
        </CharString>
        <CharString name="ccedilla">
          -102 -186 50 53 39 56 -21 401 118 -92 callgsubr
          108 94 vstem
          229 -9 rmoveto
          -31 -49 -6 -10 4 -13 10 -5 rlinecurve
          -63 callgsubr
          22 35 78 1 89 31 50 88 rlinecurve
          -80 callgsubr
          -141 72 -99 133 -20 hvcurveto
          endchar
        </CharString>
        <CharString name="cdotaccent">
          -102 -105 callsubr
          74 141 -92 callgsubr
          31 141 -12 callgsubr
          -68 666 -106 callgsubr
          endchar
        </CharString>
        <CharString name="cedilla">
          -301 -187 50 53 39 66 -21 hstem
          194 94 vstem
          161 -187 rmoveto
          29 callgsubr
          30 48 -41 25 -52 -84 -49 callsubr
          rlinecurve
          -5 callgsubr
          endchar
        </CharString>
        <CharString name="cent">
          -102 10 -21 22 -21 517 -20 21 -20 -92 callgsubr
          65 74 vstem
          244 -11 rmoveto
          -76 73 77 vlineto
          69 9 72 33 42 75 -124 45 rcurveline
          -12 -21 -20 -16 -26 -6 rrcurveto
          279 vlineto
          24 -7 21 -17 12 -30 127 45 rcurveline
          -39 83 -73 36 -73 9 rrcurveto
          64 -73 -63 vlineto
          -132 -15 -88 -99 -143 vvcurveto
          -147 78 -101 142 -14 vhcurveto
          394 vmoveto
          -268 vlineto
          -36 16 -29 40 79 vvcurveto
          76 28 40 37 17 vhcurveto
          endchar
        </CharString>
        <CharString name="circumflex">
          -155 574 152 hstem
          37 393 vstem
          166 574 -57 callgsubr
        </CharString>
        <CharString name="circumflex.case">
          -227 731 152 hstem
          1 393 vstem
          1 -16 callsubr
        </CharString>
        <CharString name="colon">
          -67 callgsubr
          328 41 callsubr
          hintmask 01011000
          139 -12 rmoveto
          53 44 44 54 hvcurveto
          hintmask 10011000
          -56 callsubr
          hintmask 01011000
          -96 callsubr
          vhcurveto
          hintmask 01101000
          328 vmoveto
          35 callsubr
          -82 callgsubr
          -53 44 -43 54 hvcurveto
          endchar
        </CharString>
        <CharString name="comma">
          12 -21 -34 callgsubr
          -9 rmoveto
          -53 -137 20 callsubr
          12 vvcurveto
          55 -44 43 -53 -54 -44 -43 -54 -94 callsubr
          endchar
        </CharString>
        <CharString name="copyright">
          176 -12 69 88 85 207 85 88 69 hstem
          53 70 95 112 345 70 vstem
          398 -12 rmoveto
          192 155 155 191 190 -155 155 -192 -190 -155 -155 -190 63 callgsubr
          hvcurveto
          -275 346 rmoveto
          152 124 124 151 153 124 -124 -152 -153 -124 -124 -153 -151 -124 124 153 vhcurveto
          278 -189 rmoveto
          58 67 22 64 37 hvcurveto
          -90 33 rlineto
          -21 -12 -22 -13 -32 hhcurveto
          -38 -39 26 78 75 38 28 39 29 24 -12 -31 12 hvcurveto
          92 34 rlineto
          70 -33 -68 24 -62 hhcurveto
          -108 -75 -75 -113 -113 66 -76 117 hvcurveto
          endchar
        </CharString>
        <CharString name="currency">
          -26 102 119 198 120 -41 -20 hstemhm
          79 120 198 119 hintmask 10111000
          120 446 rmoveto
          -26 -36 -15 -43 -46 vvcurveto
          -48 15 -43 26 -36 vhcurveto
          -67 -67 52 -52 67 67 rlineto
          -26 36 43 -14 47 hhcurveto
          48 42 14 26 36 hvcurveto
          67 -67 52 52 -67 67 rlineto
          25 36 15 43 48 vvcurveto
          46 -14 43 -26 36 vhcurveto
          67 67 -52 52 -67 -67 rlineto
          hintmask 11011000
          26 -36 -42 15 -48 hhcurveto
          hintmask 10111000
          -47 -43 -15 -26 -36 hvcurveto
          -67 67 -52 -52 rlineto
          146 -192 rmoveto
          hintmask 11011000
          54 44 44 55 54 45 -44 -54 -55 -45 -45 -54 -55 -44 45 55 vhcurveto
          endchar
        </CharString>
        <CharString name="d">
          -26 -69 callgsubr
          158 -20 hstemhm
          24 158 212 152 hintmask 10111100
          243 -12 rmoveto
          54 59 22 57 42 hvcurveto
          hintmask 01111100
          20 -67 rlineto
          145 hlineto
          -14 73 -3 71 50 vvcurveto
          474 -152 -240 vlineto
          -43 callgsubr
          hvcurveto
          hintmask 10111100
          -162 91 -102 128 vhcurveto
          49 404 rmoveto
          -1 callsubr
          91 50 49 60 hvcurveto
          endchar
        </CharString>
        <CharString name="dagger">
          -28 21 -28 callgsubr
          172 -20 hstem
          225 144 vstem
          225 380 rmoveto
          -380 144 380 184 116 -184 172 -144 -172 -184 -116 vlineto
          endchar
        </CharString>
        <CharString name="daggerdbl">
          -28 21 -21 173 115 92 116 172 -20 hstem
          225 144 vstem
          41 380 rmoveto
          184 -92 -184 -115 184 -173 144 173 184 115 -184 92 184 116 -184 172 -144 -172 -184 hlineto
          endchar
        </CharString>
        <CharString name="dcaron">
          35 -69 callgsubr
          -14 172 hstemhm
          24 158 212 152 hintmask 10011100
          243 -12 rmoveto
          54 59 22 57 42 hvcurveto
          hintmask 01011100
          20 -67 rlineto
          145 hlineto
          -14 73 -3 71 50 vvcurveto
          474 -152 -240 vlineto
          hintmask 10101100
          -43 callgsubr
          -162 91 -102 128 hvcurveto
          49 404 rmoveto
          -1 callsubr
          91 50 49 60 hvcurveto
          hintmask 01011100
          284 104 rmoveto
          80 hlineto
          52 118 rlineto
          2 5 1 6 6 vvcurveto
          27 -21 30 -34 -23 -28 -16 -31 -5 vhcurveto
          endchar
        </CharString>
        <CharString name="dcroat">
          -29 -69 callgsubr
          45 78 hstemhm
          24 158 212 152 hintmask 10111100
          243 -12 rmoveto
          54 59 22 57 42 hvcurveto
          hintmask 01111100
          20 -67 rlineto
          145 hlineto
          -14 73 -3 71 50 vvcurveto
          361 66 78 -66 65 -152 -65 -151 -78 151 -127 vlineto
          -43 callgsubr
          hvcurveto
          hintmask 10111100
          -162 91 -102 128 vhcurveto
          -61 264 rmoveto
          91 50 49 60 59 50 -42 -101 -103 -50 -40 -59 -60 -50 54 92 vhcurveto
          endchar
        </CharString>
        <CharString name="degree">
          -218 354 90 146 89 hstem
          40 89 146 89 vstem
          40 517 rmoveto
          -90 73 -73 89 90 72 73 90 89 -72 73 -90 -89 -73 -73 -89 vhcurveto
          162 73 rmoveto
          41 32 -33 -40 -40 -32 -33 -41 -40 -33 33 40 40 33 33 40 hvcurveto
          endchar
        </CharString>
        <CharString name="dieresis">
          -170 578 -94 callgsubr
          59 -107 callgsubr
          vstem
          59 648 -101 callgsubr
        </CharString>
        <CharString name="dieresis.case">
          -256 726 -94 callgsubr
          16 -107 callgsubr
          vstem
          16 796 -101 callgsubr
        </CharString>
        <CharString name="divide">
          -28 -12 159 39 128 37 159 hstem
          218 -46 callsubr
          186 38 callsubr
          256 37 rmoveto
          43 36 36 44 44 -36 35 -43 -43 -36 -35 -44 -44 36 -36 43 hvcurveto
          -363 vmoveto
          43 36 36 44 43 -36 36 -43 -43 -36 -36 -43 -44 36 -36 43 hvcurveto
          endchar
        </CharString>
        <CharString name="dollar">
          -3 10 -21 22 -21 688 -20 hstem
          28 162 82 73 89 162 vstem
          272 -10 rmoveto
          -77 73 76 vlineto
          128 12 123 77 131 vvcurveto
          138 -132 36 -108 20 vhcurveto
          -11 2 rlineto
          143 vlineto
          38 -10 28 -22 13 -33 143 52 rcurveline
          -37 92 -88 43 -97 8 rrcurveto
          69 -73 -69 vlineto
          -121 -11 -123 -64 -129 vvcurveto
          -115 95 -49 108 -24 vhcurveto
          41 -9 rlineto
          -157 vlineto
          -53 10 -36 29 -14 50 -144 -52 rcurveline
          37 -96 86 -60 124 -11 rrcurveto
          73 127 rmoveto
          144 vlineto
          54 -15 35 -21 -36 vvcurveto
          -47 -44 -20 -45 -5 vhcurveto
          -155 372 rmoveto
          35 34 22 48 6 vhcurveto
          -132 vlineto
          -6 1 rlineto
          -46 8 -30 26 34 vvcurveto
          endchar
        </CharString>
        <CharString name="dotaccent">
          -421 578 -94 callgsubr
          30 141 vstem
          30 648 -106 callgsubr
          endchar
        </CharString>
        <CharString name="dotaccent.case">
          -277 726 -94 callgsubr
          105 141 vstem
          105 796 -106 callgsubr
          endchar
        </CharString>
        <CharString name="dotlessi">
          -98 callsubr
          hstem
          118 153 vstem
          24 496 rmoveto
          -115 94 10 callsubr
          vlineto
          endchar
        </CharString>
        <CharString name="e">
          -103 callgsubr
          -90 callsubr
          226 -21 callgsubr
          endchar
        </CharString>
        <CharString name="eacute">
          -103 callgsubr
          64 153 -39 callsubr
          -170 274 rmoveto
          114 hlineto
          -20 callsubr
          endchar
        </CharString>
        <CharString name="ecaron">
          -103 callgsubr
          58 152 -33 callsubr
          69 469 0 callgsubr
          -45 -420 rmoveto
          27 callsubr
          59 -65 callgsubr
          endchar
        </CharString>
        <CharString name="ecircumflex">
          -103 callgsubr
          64 152 -33 callsubr
          69 323 -7 callsubr
          54 -309 25 callgsubr
          endchar
        </CharString>
        <CharString name="edieresis">
          -103 callgsubr
          68 -101 callsubr
          24 153 -63 -107 callgsubr
          -45 141 hintmask 11111001
          -17 callgsubr
          hintmask 11110110
          -289 348 -101 callgsubr
        </CharString>
        <CharString name="edotaccent">
          -103 callgsubr
          74 141 -90 callsubr
          42 141 43 -21 callgsubr
          -75 257 -106 callgsubr
          endchar
        </CharString>
        <CharString name="egrave">
          -103 callgsubr
          64 154 -39 callsubr
          -244 329 rmoveto
          -49 callgsubr
          -17 7 -13 12 -12 hvcurveto
          endchar
        </CharString>
        <CharString name="eight">
          3 -12 126 180 123 138 125 hstemhm
          38 157 -75 124 136 125 -75 157 hintmask 11110010
          313 -25 callgsubr
        </CharString>
        <CharString name="eight.tf">
          10 -12 126 180 123 138 125 hstemhm
          41 157 -75 124 136 125 -75 157 hintmask 11110010
          316 -25 callgsubr
        </CharString>
        <CharString name="ellipsis">
          181 -12 196 hstem
          41 195 69 194 68 195 vstem
          567 86 rmoveto
          -96 callsubr
          54 43 44 54 54 -43 44 -54 -54 -44 -44 -54 vhcurveto
          -526 hmoveto
          -54 44 -44 54 53 44 44 54 54 -44 44 -53 -82 callgsubr
          vhcurveto
          264 hmoveto
          -54 42 -44 54 54 44 44 54 54 -44 44 -54 -54 -42 -44 -54 vhcurveto
          endchar
        </CharString>
        <CharString name="emacron">
          -103 callgsubr
          60 98 hstem
          24 153 226 141 vstem
          -45 callsubr
          116 319 -50 callsubr
          37 -368 -44 callgsubr
          endchar
        </CharString>
        <CharString name="emdash">
          220 185 128 hstem
          41 760 vstem
          801 185 rmoveto
          128 -760 -91 callsubr
        </CharString>
        <CharString name="endash">
          -114 185 128 hstem
          41 426 vstem
          467 185 rmoveto
          128 -426 -91 callsubr
        </CharString>
        <CharString name="eogonek">
          -56 -174 76 111 -21 218 90 97 113 -90 callsubr
          9 126 91 141 vstem
          24 251 rmoveto
          -146 88 -94 132 -19 vhcurveto
          -31 -15 -27 -25 -37 -88 callsubr
          29 43 25 45 22 hvcurveto
          44 18 40 30 29 43 -121 44 rcurveline
          -76 callgsubr
          153 49 -44 callgsubr
          endchar
        </CharString>
        <CharString name="equal">
          -4 96 129 58 127 hstem
          53 512 vstem
          53 225 rmoveto
          -129 512 129 vlineto
          58 vmoveto
          127 -512 -127 vlineto
          endchar
        </CharString>
        <CharString name="estimated">
          -18 -12 70 191 66 125 70 hstem
          41 137 248 137 vstem
          303 -12 rmoveto
          89 79 46 69 47 hvcurveto
          -68 25 rlineto
          -43 -35 -54 -27 -58 hhcurveto
          -48 -44 17 29 -33 hvcurveto
          145 385 vlineto
          144 -117 117 -143 -145 -117 -117 -144 -144 117 -117 145 vhcurveto
          -125 406 rmoveto
          29 33 44 17 48 hhcurveto
          46 44 -17 -29 33 hvcurveto
          -79 -248 vlineto
          endchar
        </CharString>
        <CharString name="eth">
          -37 -12 113 237 114 152 122 -48 -20 hstemhm
          24 156 216 158 hintmask 11011100
          286 -12 rmoveto
          189 79 145 185 122 -28 100 -89 89 hvcurveto
          -3 3 -4 4 -4 3 48 47 rcurveline
          -48 48 -56 -56 rlineto
          hintmask 11101100
          31 -53 -67 17 -87 hhcurveto
          -122 vlineto
          43 38 -7 -14 32 hvcurveto
          -53 -53 48 -47 63 64 39 -34 22 -49 1 -61 rlinecurve
          30 -34 -43 19 -66 hhcurveto
          -121 -108 -97 -135 -142 110 -90 152 hvcurveto
          350 vmoveto
          64 44 -46 -72 -72 -43 -47 -65 -66 -40 47 72 69 40 49 66 hvcurveto
          endchar
        </CharString>
        <CharString name="exclam">
          -339 -67 callgsubr
          680 -20 hstemhm
          44 194 hintmask 01110000
          44 495 rmoveto
          41 -252 rlineto
          111 hlineto
          42 252 rlineto
          173 -194 vlineto
          98 -680 rmoveto
          53 44 44 54 hvcurveto
          hintmask 10110000
          -56 callsubr
          hintmask 01110000
          -96 callsubr
          vhcurveto
          endchar
        </CharString>
        <CharString name="exclamdown">
          -339 -161 680 -194 194 hstemhm
          45 193 hintmask 10100000
          45 -161 rmoveto
          193 173 hlineto
          -41 253 rlineto
          -111 hlineto
          -41 -253 rlineto
          hintmask 01100000
          -1 409 rmoveto
          -53 44 -43 54 53 44 43 53 54 -44 44 -53 -82 callgsubr
          vhcurveto
          endchar
        </CharString>
        <CharString name="f">
          -255 21 -28 callgsubr
          112 120 hstem
          87 152 vstem
          5 380 rmoveto
          82 -380 152 380 108 116 -108 67 hlineto
          38 12 7 54 vhcurveto
          42 120 -69 hlineto
          -134 -57 -33 -118 hvcurveto
          -81 -82 vlineto
          endchar
        </CharString>
        <CharString name="five">
          -10 -12 113 240 113 90 124 hstem
          408 157 vstem
          295 -20 callgsubr
        </CharString>
        <CharString name="five.tf">
          10 -12 113 240 113 90 124 hstem
          421 157 vstem
          308 -20 callgsubr
        </CharString>
        <CharString name="florin">
          -245 -172 141 412 115 112 121 hstem
          97 152 vstem
          15 496 rmoveto
          -115 82 -342 vlineto
          -36 -3 -17 -19 -12 vhcurveto
          -13 -8 -25 -1 -22 4 rrcurveto
          -133 vlineto
          -5 23 29 -3 26 hhcurveto
          28 26 3 6 17 hvcurveto
          49 18 36 50 79 vvcurveto
          397 108 115 -108 68 vlineto
          37 12 7 54 vhcurveto
          42 121 -69 hlineto
          -134 -57 -34 -117 hvcurveto
          -82 vlineto
          endchar
        </CharString>
        <CharString name="four">
          4 21 -21 141 134 393 -20 hstem
          348 152 vstem
          23 -2 callgsubr
        </CharString>
        <CharString name="four.tf">
          10 21 -21 141 134 393 -20 hstem
          357 152 vstem
          32 -2 callgsubr
        </CharString>
        <CharString name="fraction">
          2 -77 callsubr
          594 39 callgsubr
          127 hlineto
          467 668 rlineto
          endchar
        </CharString>
        <CharString name="g">
          -62 callsubr
          -76 callsubr
          213 151 hintmask 11011100
          -62 callgsubr
          hintmask 11101100
          -17 callsubr
          endchar
        </CharString>
        <CharString name="gbreve">
          -62 callsubr
          93 120 -76 callsubr
          213 151 hintmask 11011110
          -62 callgsubr
          hintmask 11101110
          -17 callsubr
          115 302 1 callgsubr
        </CharString>
        <CharString name="gdotaccent">
          -62 callsubr
          102 141 -76 callsubr
          50 141 22 151 hintmask 11011111
          -62 callgsubr
          hintmask 11101111
          12 callsubr
          268 133 rmoveto
          57 callgsubr
          -60 -50 43 88 87 50 38 60 hvcurveto
          -60 256 -106 callgsubr
          endchar
        </CharString>
        <CharString name="germandbls">
          7 -12 126 -93 -21 298 117 141 123 hstemhm
          44 153 213 147 -114 156 hintmask 10111000
          hintmask 01111100
          197 hmoveto
          424 vlineto
          89 21 43 97 66 29 -30 -40 -48 -35 -23 -71 vhcurveto
          -26 -117 31 hlineto
          hintmask 10111010
          79 55 -27 -73 -54 -47 -30 -51 -23 -22 3 6 -22 hvcurveto
          41 -134 rlineto
          -1 13 12 0 13 hhcurveto
          142 100 70 146 84 -42 54 -53 28 hvcurveto
          hintmask 01111100
          27 23 26 44 56 vvcurveto
          123 -103 63 -135 -171 -104 -62 -182 vhcurveto
          -435 vlineto
          endchar
        </CharString>
        <CharString name="grave">
          -308 574 154 hstem
          53 208 vstem
          72 629 rmoveto
          -49 callgsubr
          -17 7 -13 12 -12 hvcurveto
          endchar
        </CharString>
        <CharString name="grave.case">
          -373 731 154 hstem
          -20 219 vstem
          -20 829 -18 callsubr
        </CharString>
        <CharString name="greater">
          21 callsubr
          533 200 rmoveto
          99 vlineto
          -493 211 rlineto
          -142 vlineto
          325 -118 -325 -120 rlineto
          -142 vlineto
          endchar
        </CharString>
        <CharString name="greaterequal">
          17 callsubr
          41 510 rmoveto
          -129 vlineto
          337 -57 -337 -59 rlineto
          -129 vlineto
          512 124 rlineto
          126 vlineto
          -512 -386 38 callsubr
          endchar
        </CharString>
        <CharString name="guillemotleft">
          33 callsubr
          294 251 rmoveto
          146 -211 rlineto
          176 hlineto
          -150 211 149 210 rlineto
          -175 hlineto
          -387 -210 rmoveto
          148 -211 rlineto
          174 hlineto
          -149 211 148 210 rlineto
          -173 hlineto
          endchar
        </CharString>
        <CharString name="guillemotright">
          33 callsubr
          442 251 rmoveto
          -148 -211 rlineto
          174 hlineto
          148 211 -148 210 -89 callsubr
          -241 -421 rmoveto
          175 hlineto
          147 211 -147 210 -89 callsubr
          149 -210 rlineto
          endchar
        </CharString>
        <CharString name="guilsinglleft">
          -218 40 421 hstem
          41 322 vstem
          363 40 rmoveto
          -149 210 148 211 rlineto
          -173 hlineto
          -148 -211 148 -210 rlineto
          endchar
        </CharString>
        <CharString name="guilsinglright">
          -218 40 420 hstem
          41 322 vstem
          216 40 rmoveto
          147 209 -147 211 -89 callsubr
          149 -211 -150 -209 rlineto
          endchar
        </CharString>
        <CharString name="h">
          -50 21 -21 392 30 callsubr
          168 152 vstem
          202 hmoveto
          255 vlineto
          90 28 47 64 73 3 -42 callgsubr
          -39 74 -128 -76 -55 -43 -37 -22 vhcurveto
          238 -152 -668 vlineto
          endchar
        </CharString>
        <CharString name="hbar">
          -32 21 -21 392 118 45 78 hstem
          68 152 168 152 vstem
          -26 555 rmoveto
          94 -555 152 255 hlineto
          -87 callsubr
          125 123 78 -123 65 -152 -65 -94 vlineto
          endchar
        </CharString>
        <CharString name="hungarumlaut">
          -132 574 153 hstem
          37 410 vstem
          37 574 -73 callsubr
        </CharString>
        <CharString name="hungarumlaut.case">
          -189 746 153 hstem
          9 410 vstem
          9 746 -73 callsubr
        </CharString>
        <CharString name="hyphen">
          -214 184 129 hstem
          41 326 vstem
          367 184 rmoveto
          129 -326 -129 vlineto
          endchar
        </CharString>
        <CharString name="i">
          -307 21 27 callgsubr
          hintmask 11101000
          24 380 rmoveto
          94 -380 153 496 -247 hlineto
          hintmask 11110000
          10 callgsubr
        </CharString>
        <CharString name="iacute">
          -98 callsubr
          78 153 -65 callsubr
          100 193 -79 callgsubr
        </CharString>
        <CharString name="icircumflex">
          -98 callsubr
          78 152 -65 callsubr
          91 193 -57 callgsubr
        </CharString>
        <CharString name="idieresis">
          -98 callsubr
          82 -101 callsubr
          3 141 -26 153 -74 140 hintmask 11101000
          26 callgsubr
          hintmask 11110100
          -21 267 -101 callgsubr
        </CharString>
        <CharString name="igrave">
          -98 callsubr
          78 154 -65 callsubr
          23 290 -68 callsubr
        </CharString>
        <CharString name="imacron">
          -98 callsubr
          74 98 hstem
          118 153 vstem
          24 496 rmoveto
          -115 94 10 callsubr
          vlineto
          54 74 -71 callgsubr
        </CharString>
        <CharString name="infinity">
          127 97 107 102 106 hstem
          41 120 427 120 vstem
          213 97 rmoveto
          72 48 35 44 41 hvcurveto
          -44 41 49 -35 72 hhcurveto
          97 75 65 93 91 -77 66 -99 -66 -50 -32 -44 -42 hvcurveto
          44 -41 -50 32 -66 hhcurveto
          -99 -77 -66 -91 -93 75 -65 97 hvcurveto
          314 209 rmoveto
          34 27 -20 -30 -30 -24 -22 -35 -37 -28 24 28 -23 hvcurveto
          27 23 29 23 34 hhcurveto
          -305 hmoveto
          34 29 -23 -27 23 hvcurveto
          -28 -23 -28 -24 -37 hhcurveto
          -35 -24 22 30 30 27 20 34 hvcurveto
          endchar
        </CharString>
        <CharString name="integral">
          -136 -174 144 566 144 -69 69 0 -20 hstemhm
          41 113 26 127 26 112 hintmask 10010100
          hintmask 10011100
          41 -84 rmoveto
          -47 55 -43 45 vhcurveto
          hintmask 10100100
          95 81 61 231 -2 hvcurveto
          -1 97 -7 243 46 vvcurveto
          62 8 35 21 10 vhcurveto
          hintmask 11000110
          -2 -6 -1 -6 -7 vvcurveto
          -31 24 -25 32 30 25 24 30 1 vhcurveto
          52 -50 38 -49 vhcurveto
          hintmask 10010100
          -95 -81 -61 -231 2 hvcurveto
          1 -96 7 -244 -46 vvcurveto
          -62 -7 -35 -22 -10 vhcurveto
          hintmask 10011100
          2 6 1 6 7 vvcurveto
          31 -25 25 -32 -30 -25 -24 -30 -1 vhcurveto
          endchar
        </CharString>
        <CharString name="iogonek">
          -307 -174 76 119 27 callgsubr
          hintmask 11110100
          24 380 rmoveto
          94 -380 2 hlineto
          -66 callsubr
          -78 callsubr
          hvcurveto
          10 496 -247 hlineto
          hintmask 11111000
          10 callgsubr
        </CharString>
        <CharString name="j">
          -363 -161 120 537 -20 102 180 hstemhm
          42 180 -167 152 hintmask 11001000
          -70 -41 rmoveto
          -120 87 vlineto
          109 81 24 113 hvcurveto
          520 -152 -498 vlineto
          -33 -14 -6 -52 vhcurveto
          hintmask 11110000
          53 709 rmoveto
          -49 40 -41 50 49 41 41 49 50 -41 40 -49 -50 -40 -40 -50 vhcurveto
          endchar
        </CharString>
        <CharString name="k">
          -55 21 41 callgsubr
          vstem
          50 -104 callsubr
          -668 152 125 vlineto
          52 55 129 -180 rlineto
          180 hlineto
          -209 289 194 207 rlineto
          -180 hlineto
          -166 -188 rlineto
          360 vlineto
          endchar
        </CharString>
        <CharString name="l">
          -308 0 124 544 -20 hstem
          50 152 vstem
          50 140 rmoveto
          -117 42 -81 callgsubr
          97 124 -43 hlineto
          -51 -92 callsubr
          488 -152 vlineto
          endchar
        </CharString>
        <CharString name="lcaron">
          -308 0 124 373 171 hstem
          50 152 vstem
          214 hmoveto
          97 124 -43 hlineto
          -51 -92 callsubr
          488 -152 -528 vlineto
          -33 callgsubr
          19 497 rmoveto
          80 hlineto
          -85 callsubr
          endchar
        </CharString>
        <CharString name="less">
          21 callsubr
          40 200 rmoveto
          493 -212 rlineto
          142 vlineto
          -324 120 324 118 rlineto
          142 vlineto
          -493 -211 rlineto
          endchar
        </CharString>
        <CharString name="lessequal">
          17 callsubr
          553 136 rmoveto
          129 vlineto
          -337 59 337 57 rlineto
          129 vlineto
          -512 -124 rlineto
          -126 vlineto
          -132 vmoveto
          -128 512 128 vlineto
          endchar
        </CharString>
        <CharString name="logicalnot">
          -4 295 127 hstem
          437 128 vstem
          53 422 rmoveto
          -127 384 -239 128 366 vlineto
          endchar
        </CharString>
        <CharString name="lozenge">
          -15 -91 807 hstem
          41 525 vstem
          304 502 rmoveto
          124 -189 -124 -189 -125 189 rlineto
          125 403 rmoveto
          -263 -403 263 -404 262 404 rlineto
          endchar
        </CharString>
        <CharString name="lslash">
          -300 0 124 381 -20 183 -20 hstem
          59 153 vstem
          5 195 rmoveto
          54 33 rlineto
          -89 vlineto
          -116 43 -81 callgsubr
          95 124 -42 hlineto
          -51 -14 9 46 hvcurveto
          140 vlineto
          107 64 rlineto
          122 vlineto
          -107 -65 rlineto
          228 -153 -319 vlineto
          -54 -32 rlineto
          endchar
        </CharString>
        <CharString name="m">
          264 21 -39 callgsubr
          164 153 165 152 hintmask 10111100
          202 hmoveto
          259 vlineto
          86 27 47 63 71 3 67 callgsubr
          153 262 vlineto
          87 26 43 62 73 4 -42 callgsubr
          -40 74 -127 -70 -62 -28 -55 -38 vhcurveto
          54 -23 -45 29 -79 hhcurveto
          -74 -54 -43 -37 -22 hvcurveto
          hintmask 11011100
          -27 callgsubr
          -496 hlineto
          endchar
        </CharString>
        <CharString name="macron">
          -217 570 98 hstem
          53 299 vstem
          352 570 -71 callgsubr
        </CharString>
        <CharString name="macron.case">
          -274 747 98 hstem
          25 299 vstem
          324 747 -71 callgsubr
        </CharString>
        <CharString name="minus">
          -28 184 128 hstem
          41 512 vstem
          553 184 rmoveto
          128 -512 -128 vlineto
          endchar
        </CharString>
        <CharString name="multiply">
          -83 22 454 hstem
          41 457 vstem
          498 385 rmoveto
          -91 91 -137 -139 -138 139 -91 -91 139 -137 -136 -136 91 -90 135 136 134 -136 91 90 -136 136 rlineto
          endchar
        </CharString>
        <CharString name="n">
          -50 21 -39 callgsubr
          168 152 hintmask 10111000
          hintmask 11011000
          19 callsubr
          hintmask 10111000
          -87 callsubr
          hintmask 11011000
          -19 66 rlineto
          endchar
        </CharString>
        <CharString name="nacute">
          -38 callgsubr
          64 153 -30 callsubr
          163 78 -103 callsubr
        </CharString>
        <CharString name="ncaron">
          -38 callgsubr
          58 152 -30 callsubr
          54 91 -99 callgsubr
        </CharString>
        <CharString name="nine">
          -61 21 -21 202 133 209 135 hstem
          38 135 209 134 vstem
          38 -22 callgsubr
        </CharString>
        <CharString name="nine.tf">
          10 21 -21 202 133 209 135 hstem
          77 135 209 134 vstem
          77 -22 callgsubr
        </CharString>
        <CharString name="notequal">
          -28 0 225 -129 129 58 127 -127 212 hstemhm
          41 512 hintmask 10011000
          41 225 rmoveto
          hintmask 01011000
          -129 73 vlineto
          hintmask 10011000
          -67 -96 rlineto
          153 hlineto
          hintmask 01011000
          68 96 rlineto
          285 hlineto
          hintmask 10011000
          129 -196 vlineto
          40 58 rlineto
          156 hlineto
          hintmask 10101000
          127 -66 vlineto
          hintmask 10011000
          60 85 rlineto
          -153 hlineto
          hintmask 10101000
          -59 -85 rlineto
          -294 hlineto
          hintmask 10011000
          -127 204 vlineto
          -41 -58 rlineto
          endchar
        </CharString>
        <CharString name="ntilde">
          -38 callgsubr
          59 79 -74 115 58 callgsubr
          hintmask 10101110
          50 hmoveto
          152 255 hlineto
          -87 callsubr
          hintmask 11001110
          -27 callgsubr
          hlineto
          46 78 -86 callsubr
          hintmask 10110110
          -55 callgsubr
          hintmask 10101110
          -41 -20 41 -63 hhcurveto
          hintmask 11001110
          -71 -42 -42 -73 -12 hvcurveto
          endchar
        </CharString>
        <CharString name="numbersign">
          161 21 -21 127 139 136 139 127 -20 hstem
          24 735 vstem
          152 127 rmoveto
          -18 -127 rlineto
          141 hlineto
          18 127 rlineto
          136 hlineto
          -18 -127 rlineto
          141 hlineto
          18 127 rlineto
          129 hlineto
          20 140 rlineto
          -128 hlineto
          19 135 rlineto
          128 hlineto
          21 139 rlineto
          -129 hlineto
          19 127 rlineto
          -141 hlineto
          -19 -127 rlineto
          -137 hlineto
          19 127 rlineto
          -140 hlineto
          -19 -127 rlineto
          -128 hlineto
          -20 -140 rlineto
          128 hlineto
          -20 -135 rlineto
          -128 hlineto
          -20 -139 rlineto
          289 140 rmoveto
          19 134 rlineto
          137 hlineto
          -19 -134 rlineto
          endchar
        </CharString>
        <CharString name="o">
          -49 -105 callsubr
          -74 callsubr
          endchar
        </CharString>
        <CharString name="oacute">
          -83 callsubr
          153 -15 callgsubr
          164 324 -103 callsubr
        </CharString>
        <CharString name="ocircumflex">
          -83 callsubr
          152 -74 callsubr
          -68 182 -57 callgsubr
        </CharString>
        <CharString name="odieresis">
          -49 -105 callsubr
          68 -101 callsubr
          24 155 -60 -107 callgsubr
          -59 155 hintmask 11101010
          hintmask 11110010
          -44 callsubr
          hintmask 11101100
          11 328 -24 callsubr
        </CharString>
        <CharString name="oe">
          315 -12 118 103 90 93 118 -114 114 hstemhm
          24 155 215 153 226 142 hintmask 11011110
          24 250 rmoveto
          -180 125 -82 138 69 68 21 46 49 vhcurveto
          -44 47 67 -23 79 hhcurveto
          82 84 34 77 52 hvcurveto
          -121 44 rlineto
          -23 -20 -33 -14 -49 hhcurveto
          -55 -54 33 70 -5 hvcurveto
          368 hlineto
          175 10 -101 126 -164 hhcurveto
          -72 -65 -25 -44 -48 hvcurveto
          47 -49 -69 22 -70 hhcurveto
          -32 callgsubr
          hvcurveto
          hintmask 11101110
          263 142 rmoveto
          59 48 -38 -104 -104 -46 -40 -61 -62 -46 40 104 104 48 38 60 hvcurveto
          hintmask 11011110
          377 4 rmoveto
          60 48 -33 -64 1 hvcurveto
          -226 hlineto
          27 callsubr
          endchar
        </CharString>
        <CharString name="ogonek">
          -327 -174 174 hstemhm
          37 126 -126 221 hintmask 10100000
          hintmask 11000000
          179 14 callgsubr
          -78 callsubr
          hvcurveto
          -141 34 callgsubr
          vhcurveto
          endchar
        </CharString>
        <CharString name="ogonek.case">
          -359 -174 174 21 -21 hstemhm
          33 126 hintmask 01100000
          hintmask 10100000
          175 14 callgsubr
          hvcurveto
          hintmask 01100000
          34 56 29 39 5 vhcurveto
          hintmask 10100000
          -141 34 callgsubr
          vhcurveto
          endchar
        </CharString>
        <CharString name="ograve">
          -83 callsubr
          154 -15 callgsubr
          -44 421 -68 callsubr
        </CharString>
        <CharString name="ohungarumlaut">
          -83 callsubr
          153 -74 callsubr
          -52 182 -4 callsubr
          316 hmoveto
          -6 callsubr
        </CharString>
        <CharString name="one">
          -174 21 -21 448 123 97 -20 hstem
          199 151 vstem
          47 448 rmoveto
          152 -448 151 668 -115 hlineto
          -90 -36 -47 -7 -105 hhcurveto
          endchar
        </CharString>
        <CharString name="one.tf">
          10 0 124 324 123 97 -20 hstem
          253 151 vstem
          253 448 rmoveto
          -324 -152 -124 431 124 -128 544 -115 vlineto
          -90 -36 -47 -7 -105 hhcurveto
          -123 vlineto
          endchar
        </CharString>
        <CharString name="onehalf">
          234 0 87 219 75 154 132 hstemhm
          137 101 462 103 vstemhm
          237 hmoveto
          468 667 rlineto
          -127 hlineto
          -468 -667 rlineto
          392 hmoveto
          300 87 -158 hlineto
          96 65 63 48 74 vvcurveto
          73 -62 34 -80 -75 -53 -30 -55 -21 vhcurveto
          91 -33 rlineto
          25 6 18 18 30 hhcurveto
          24 19 -12 -28 -60 -131 -77 -67 -48 hvcurveto
          -365 454 60 callgsubr
          hintmask 11111000
          39 callsubr
          endchar
        </CharString>
        <CharString name="onequarter">
          231 0 161 -87 87 374 132 hstemhm
          137 101 403 101 hintmask 10111000
          110 35 callgsubr
          hintmask 01111000
          -118 -593 rmoveto
          181 hlineto
          hintmask 10111000
          -74 101 vlineto
          hintmask 01111000
          74 58 87 -58 214 -101 vlineto
          -181 -223 rlineto
          -323 383 60 callgsubr
          hintmask 10111000
          39 callsubr
          510 -374 rmoveto
          78 95 rlineto
          -95 vlineto
          endchar
        </CharString>
        <CharString name="onesuperior">
          -331 647 87 hstem
          137 101 vstem
          53 734 rmoveto
          -87 84 -244 101 376 -79 vlineto
          -42 -13 -39 -3 -54 hhcurveto
          endchar
        </CharString>
        <CharString name="ordfeminine">
          -227 395 72 57 61 38 68 hstem
          53 104 83 97 vstem
          160 395 rmoveto
          48 27 17 23 14 hvcurveto
          9 -32 rlineto
          84 hlineto
          -5 41 0 39 35 vvcurveto
          60 vlineto
          80 -42 33 -85 -70 -48 -20 -41 -20 vhcurveto
          87 -31 rlineto
          19 4 17 5 18 hhcurveto
          27 13 -9 -20 hvcurveto
          -6 vlineto
          -35 -4 -43 -5 -53 -7 -28 -22 rlinecurve
          -16 -12 -10 -20 -27 vvcurveto
          -51 38 -45 69 vhcurveto
          -3 100 rmoveto
          14 10 11 36 3 vhcurveto
          37 3 rlineto
          -17 vlineto
          -27 -22 -15 -28 -23 -10 13 15 vhcurveto
          endchar
        </CharString>
        <CharString name="ordmasculine">
          -213 395 77 140 77 hstem
          57 103 98 102 vstem
          57 542 rmoveto
          -100 69 -47 83 83 68 47 100 101 -68 46 -83 -83 -69 -46 -101 vhcurveto
          152 70 rmoveto
          28 21 -23 -47 -47 -21 -23 -28 -27 -22 23 47 47 22 23 27 hvcurveto
          endchar
        </CharString>
        <CharString name="oslash">
          -49 -105 callsubr
          49 callgsubr
          82 75 rmoveto
          -46 -53 56 -48 46 53 rlineto
          -26 43 52 -13 54 hhcurveto
          136 126 82 180 79 -24 59 -39 43 hvcurveto
          39 45 -56 48 -42 -48 rlineto
          23 -41 -49 11 -50 hhcurveto
          -32 callgsubr
          -75 22 -58 36 -42 hvcurveto
          141 51 rmoveto
          163 190 rlineto
          5 -19 3 -21 -26 vvcurveto
          -104 -46 -40 -61 -24 -22 6 14 -18 vhcurveto
          64 266 rmoveto
          21 18 -5 -10 16 hvcurveto
          -157 -183 rlineto
          -4 16 -2 19 21 vvcurveto
          104 48 38 60 vhcurveto
          endchar
        </CharString>
        <CharString name="otilde">
          -49 -105 callsubr
          59 -84 callgsubr
          24 155 215 155 hintmask 11011100
          -44 callsubr
          -83 324 rmoveto
          89 hlineto
          -35 callsubr
        </CharString>
        <CharString name="p">
          -26 -12 51 callgsubr
          50 152 212 158 hintmask 11011000
          202 -161 rmoveto
          232 vlineto
          -55 32 callsubr
          163 161 -91 101 62 callgsubr
          hintmask 10111000
          -20 68 rlineto
          -132 -657 hlineto
          145 412 rmoveto
          hintmask 11011000
          102 50 39 60 59 50 -53 -91 -93 -50 -49 -59 -60 -50 43 102 vhcurveto
          endchar
        </CharString>
        <CharString name="paragraph">
          -107 600 67 hstem
          166 95 92 95 vstem
          24 478 rmoveto
          -89 61 -73 81 -21 vhcurveto
          -457 95 762 92 -762 95 762 47 67 -282 vlineto
          -104 -85 -85 -104 hvcurveto
          endchar
        </CharString>
        <CharString name="parenleft">
          -256 -95 callgsubr
          35 141 vstem
          180 -161 rmoveto
          151 hlineto
          -87 121 -68 151 165 vvcurveto
          144 35 130 78 118 vhcurveto
          -144 hlineto
          -70 -115 -40 -134 -139 vvcurveto
          -167 57 -151 88 -123 vhcurveto
          endchar
        </CharString>
        <CharString name="parenright">
          -256 -95 callgsubr
          190 141 vstem
          35 -161 rmoveto
          152 hlineto
          87 123 57 151 167 vvcurveto
          139 -40 134 -70 115 vhcurveto
          -144 hlineto
          78 -118 35 -130 -144 vvcurveto
          -165 -67 -151 -88 -121 vhcurveto
          endchar
        </CharString>
        <CharString name="partialdiff">
          -25 -12 119 208 120 125 120 hstem
          41 151 250 114 vstem
          289 -12 rmoveto
          85 104 32 123 51 hvcurveto
          22 55 5 59 58 vvcurveto
          379 -284 -14 -100 vhcurveto
          -120 vlineto
          200 11 61 -90 9 -125 rrcurveto
          35 -27 -57 44 -93 hhcurveto
          -124 -100 -100 -123 -147 114 -77 134 hvcurveto
          7 327 rmoveto
          57 46 -46 -58 -57 -46 -47 -57 -57 -47 47 57 58 47 46 57 hvcurveto
          endchar
        </CharString>
        <CharString name="percent">
          355 18 callgsubr
          24 119 157 118 141 118 158 118 hintmask 1001101111000000
          756 -12 rmoveto
          109 88 89 109 hvcurveto
          hintmask 1010101111000000
          14 callsubr
          vhcurveto
          hintmask 1001101111000000
          -109 88 -89 109 vhcurveto
          -535 298 rmoveto
          108 89 87 109 109 -89 89 -108 -109 -88 -89 -109 -109 88 -87 109 hvcurveto
          hintmask 0110011111000000
          97 -286 rmoveto
          468 668 rlineto
          -127 hlineto
          -467 -668 rlineto
          564 264 rmoveto
          43 36 -35 -43 hvcurveto
          hintmask 1001101111000000
          -44 -36 -35 -43 -43 -36 35 44 vhcurveto
          hintmask 0110011111000000
          43 36 35 43 vhcurveto
          hintmask 1001101111000000
          -613 218 rmoveto
          44 35 35 43 44 35 -35 -44 -43 -35 -35 -44 -43 -35 35 43 vhcurveto
          endchar
        </CharString>
        <CharString name="period">
          -67 callgsubr
          hstemhm
          41 195 hintmask 01100000
          41 86 rmoveto
          -54 44 -44 54 53 44 44 54 vhcurveto
          hintmask 10100000
          54 -44 43 -53 vhcurveto
          hintmask 01100000
          -54 -44 -43 -54 hvcurveto
          endchar
        </CharString>
        <CharString name="periodcentered">
          -321 151 194 hstem
          53 195 vstem
          53 248 rmoveto
          -54 44 -43 54 53 44 43 54 -56 callsubr
          endchar
        </CharString>
        <CharString name="perthousand">
          818 18 callgsubr
          41 119 157 118 141 118 158 118 35 118 157 119 hintmask 1010101111110000
          773 -12 rmoveto
          6 callsubr
          -109 88 -89 109 hvcurveto
          232 198 rmoveto
          -109 88 -89 109 6 callsubr
          vhcurveto
          hintmask 0101101100000000
          -767 100 rmoveto
          108 89 88 109 109 -89 88 -108 -109 -88 -88 -109 -109 88 -88 109 hvcurveto
          97 -286 rmoveto
          hintmask 0100010010000000
          468 668 rlineto
          -127 hlineto
          -467 -668 rlineto
          hintmask 1010000011110000
          485 186 rmoveto
          43 36 35 43 43 36 -35 -43 -44 -36 -35 -43 -43 -36 35 44 vhcurveto
          429 hmoveto
          43 35 35 44 43 35 -35 -43 -44 -35 -35 -43 -44 -35 35 44 vhcurveto
          hintmask 0001101100000000
          -963 297 rmoveto
          43 35 35 43 44 35 -35 -43 -44 -35 -35 -44 -43 -35 35 44 vhcurveto
          endchar
        </CharString>
        <CharString name="pi">
          49 0 105 275 116 hstem
          132 128 154 128 vstem
          41 496 rmoveto
          -116 91 -380 128 380 154 -262 vlineto
          -98 36 -20 102 vhcurveto
          78 105 -33 hlineto
          -42 -13 7 39 hvcurveto
          229 88 116 vlineto
          endchar
        </CharString>
        <CharString name="plus">
          -4 21 -21 184 128 184 -20 hstem
          245 128 vstem
          245 184 rmoveto
          -184 128 184 192 128 -192 184 -128 -184 -192 -91 callsubr
        </CharString>
        <CharString name="plusminus">
          -4 0 128 155 108 -108 212 hstemhm
          245 128 hintmask 10110000
          hintmask 11010000
          53 391 rmoveto
          hintmask 10110000
          -108 192 -103 128 103 192 vlineto
          hintmask 11010000
          108 -192 vlineto
          hintmask 10110000
          104 -128 vlineto
          hintmask 11010000
          -104 vlineto
          320 -391 rmoveto
          128 -512 -91 callsubr
        </CharString>
        <CharString name="product">
          -8 552 116 hstem
          41 128 276 128 vstem
          169 -161 rmoveto
          713 276 -713 128 829 -532 -829 vlineto
          endchar
        </CharString>
        <CharString name="q">
          -21 -172 138 22 51 callgsubr
          24 158 212 152 hintmask 11011100
          243 -12 rmoveto
          54 65 28 54 32 hvcurveto
          -80 vlineto
          -132 89 -30 80 47 43 10 7 21 vhcurveto
          131 vlineto
          -7 -29 -23 -3 -18 hhcurveto
          -55 -3 31 41 hvcurveto
          458 -132 vlineto
          -20 -68 rlineto
          hintmask 11101100
          55 -32 -65 27 -54 hhcurveto
          -128 -91 -101 -161 -163 91 -97 128 hvcurveto
          49 404 rmoveto
          59 50 -39 -102 -102 -50 -43 -59 -60 -50 49 93 91 50 53 60 hvcurveto
          endchar
        </CharString>
        <CharString name="question">
          -8 -67 callgsubr
          570 122 hstemhm
          167 194 -175 154 68 156 hintmask 01110100
          177 486 rmoveto
          51 17 50 21 59 hhcurveto
          64 41 -24 -33 -33 -40 -18 -39 -17 hvcurveto
          -38 -18 rlineto
          hintmask 01101100
          -76 -40 -29 -38 -94 vvcurveto
          154 hlineto
          2 54 32 18 64 30 rrcurveto
          71 33 55 43 88 vvcurveto
          117 -124 54 -131 -132 -100 -51 -93 -37 vhcurveto
          hintmask 01110100
          127 -450 rmoveto
          -54 43 -44 54 54 43 44 54 vhcurveto
          hintmask 10110100
          54 -43 43 -54 vhcurveto
          hintmask 01110100
          -54 -43 -43 -54 hvcurveto
          endchar
        </CharString>
        <CharString name="questiondown">
          -8 -173 122 hstemhm
          50 156 47 194 -173 154 hintmask 11100000
          50 -2 rmoveto
          -117 124 -54 132 131 100 51 92 37 vhcurveto
          -137 50 rlineto
          -51 -17 -50 -20 -62 hhcurveto
          -62 -40 24 37 38 67 18 45 23 hvcurveto
          hintmask 11010000
          83 42 27 40 94 vvcurveto
          -154 hlineto
          -2 -55 -32 -19 -64 -29 rrcurveto
          hintmask 11100000
          -71 -34 -55 -43 -87 vvcurveto
          300 326 rmoveto
          54 43 43 54 54 -43 44 -54 -53 -44 -44 -54 -54 44 -43 53 hvcurveto
          endchar
        </CharString>
        <CharString name="quotedbl">
          -212 34 callsubr
          60 127 vstem
          40 668 rmoveto
          14 -234 rlineto
          114 -48 callsubr
          46 hmoveto
          15 -234 rlineto
          113 -48 callsubr
          endchar
        </CharString>
        <CharString name="quotedblbase">
          -124 12 -21 hstemhm
          41 195 -195 416 -194 194 hintmask 10100000
          hintmask 11000000
          41 86 rmoveto
          -94 callsubr
          8 callgsubr
          vhcurveto
          hintmask 10010000
          222 hmoveto
          -94 callsubr
          -53 -137 rlineto
          89 hlineto
          77 197 23 callgsubr
        </CharString>
        <CharString name="quotedblleft">
          -124 531 137 0 -20 37 callsubr
          hintmask 01010000
          hintmask 10100000
          41 437 rmoveto
          -96 callsubr
          53 44 44 54 46 -32 38 -43 10 vhcurveto
          53 137 rlineto
          -90 hlineto
          -76 53 callgsubr
          222 hmoveto
          -54 44 -44 53 54 43 44 54 46 -32 38 -43 10 vhcurveto
          54 137 rlineto
          -91 hlineto
          -75 22 callsubr
        </CharString>
        <CharString name="quotedblright">
          -124 680 -20 37 callsubr
          -194 194 hintmask 10100000
          hintmask 11000000
          41 582 rmoveto
          -46 32 -38 43 -11 vhcurveto
          -53 -136 rlineto
          90 hlineto
          77 196 -50 callgsubr
          vhcurveto
          hintmask 10010000
          222 hmoveto
          -46 32 -38 43 -11 vhcurveto
          -53 -136 rlineto
          89 hlineto
          77 196 23 callgsubr
        </CharString>
        <CharString name="quoteleft">
          668 -20 44 callsubr
          41 437 rmoveto
          -96 callsubr
          53 44 44 54 46 -32 38 -43 10 vhcurveto
          53 137 rlineto
          -90 hlineto
          -76 22 callsubr
        </CharString>
        <CharString name="quoteright">
          680 -20 -34 callgsubr
          487 rmoveto
          -53 -136 rlineto
          90 hlineto
          77 196 -50 callgsubr
          -46 32 -38 43 -11 vhcurveto
          endchar
        </CharString>
        <CharString name="quotesinglbase">
          12 -21 -34 callgsubr
          -9 rmoveto
          8 callgsubr
          -94 callsubr
          endchar
        </CharString>
        <CharString name="quotesingle">
          -400 34 callsubr
          vstem
          40 -104 callsubr
          14 -234 rlineto
          114 -48 callsubr
          endchar
        </CharString>
        <CharString name="r">
          -59 callsubr
          hstemhm
          50 152 hintmask 10011000
          202 hmoveto
          250 vlineto
          hintmask 11001000
          -53 callgsubr
          hintmask 10101000
          -47 callsubr
          -496 hlineto
          endchar
        </CharString>
        <CharString name="racute">
          -59 callsubr
          84 153 -93 callsubr
          hintmask 10011100
          202 hmoveto
          250 vlineto
          hintmask 11001100
          -53 callgsubr
          hintmask 10101100
          -47 callsubr
          -496 hlineto
          220 574 -103 callsubr
        </CharString>
        <CharString name="radical">
          87 93 132 443 -20 hstem
          41 627 vstem
          524 -104 callsubr
          -170 -639 -80 196 rlineto
          -233 -132 142 hlineto
          110 -255 rlineto
          156 hlineto
          219 830 rlineto
          endchar
        </CharString>
        <CharString name="rcaron">
          -59 callsubr
          78 152 -93 callsubr
          hintmask 10011100
          50 hmoveto
          152 250 hlineto
          hintmask 11001100
          -53 callgsubr
          hintmask 10101100
          -47 callsubr
          hlineto
          -25 224 -100 callgsubr
        </CharString>
        <CharString name="registered">
          176 -12 69 243 75 78 76 81 69 hstem
          53 70 118 97 120 101 116 70 vstem
          53 38 callgsubr
          192 155 155 191 190 -155 155 -192 -190 -155 -155 -190 vhcurveto
          70 hmoveto
          152 124 124 151 153 124 -124 -152 -153 -124 -124 -153 -151 -124 124 153 vhcurveto
          118 -173 rmoveto
          97 139 32 hlineto
          101 -139 rlineto
          108 hlineto
          -107 149 rlineto
          69 19 18 44 42 vvcurveto
          92 -72 22 -95 vhcurveto
          -151 hlineto
          97 -76 rmoveto
          52 hlineto
          38 30 -7 -32 -32 -30 -7 -38 hvcurveto
          -52 hlineto
          endchar
        </CharString>
        <CharString name="ring">
          -327 535 86 94 85 hstem
          15 85 94 86 vstem
          147 535 -60 callgsubr
        </CharString>
        <CharString name="ring.case">
          -250 596 86 94 85 hstem
          54 85 94 86 vstem
          186 596 -60 callgsubr
        </CharString>
        <CharString name="s">
          -52 callsubr
          hstem
          33 145 183 146 vstem
          264 -12 rmoveto
          133 110 57 117 28 callsubr
          hvcurveto
          -25 callsubr
          -3 callsubr
          -83 38 89 -43 116 hhcurveto
          endchar
        </CharString>
        <CharString name="sacute">
          -52 callsubr
          64 153 -24 callgsubr
          -53 586 -79 callgsubr
        </CharString>
        <CharString name="scaron">
          -52 callsubr
          58 152 -24 callgsubr
          -51 599 -99 callgsubr
        </CharString>
        <CharString name="scedilla">
          -88 -187 50 53 39 34 110 -89 -21 410 111 hstemhm
          33 145 116 94 -27 146 hintmask 11011101
          hintmask 11011110
          235 -11 rmoveto
          -30 -48 -49 callsubr
          rlinecurve
          -63 callgsubr
          23 37 rlineto
          hintmask 11011101
          121 7 95 57 109 vvcurveto
          83 -56 35 -120 22 vhcurveto
          -25 callsubr
          hintmask 11101101
          -3 callsubr
          hintmask 11011110
          35 -76 77 -42 102 -7 rrcurveto
          endchar
        </CharString>
        <CharString name="section">
          -44 -173 117 621 115 hstemhm
          21 149 -102 149 134 151 -104 153 hintmask 11011000
          162 125 rmoveto
          115 -56 rlineto
          48 -23 26 -23 -30 vvcurveto
          -29 -26 -20 -44 -44 -31 22 46 -12 vhcurveto
          -130 -47 rlineto
          -85 31 74 -53 108 hhcurveto
          131 94 69 109 44 -16 35 -28 30 hvcurveto
          hintmask 11010100
          58 32 35 47 55 vvcurveto
          76 -55 43 -96 47 vhcurveto
          -122 60 rlineto
          -38 19 -23 16 22 vvcurveto
          21 24 13 40 56 16 -30 -14 6 vhcurveto
          130 47 rlineto
          86 -40 -88 26 -79 hhcurveto
          -115 -99 -53 -100 -40 15 -36 24 -30 hvcurveto
          hintmask 11100100
          -51 -31 -35 -44 -51 vvcurveto
          -75 52 -52 89 -43 vhcurveto
          49 227 rmoveto
          110 -54 rlineto
          45 -22 32 -16 -30 vvcurveto
          -21 -15 -13 -27 -12 vhcurveto
          -125 62 rlineto
          -36 18 -25 16 27 vvcurveto
          17 15 15 26 13 vhcurveto
          endchar
        </CharString>
        <CharString name="semicolon">
          12 -21 325 41 callsubr
          hintmask 10110000
          41 86 rmoveto
          -94 callsubr
          -53 -137 20 callsubr
          13 vvcurveto
          54 -44 43 -53 -54 -44 -43 -54 vhcurveto
          hintmask 11010000
          326 vmoveto
          -53 44 -43 54 35 callsubr
          vhcurveto
          hintmask 10110000
          -82 callgsubr
          hvcurveto
          endchar
        </CharString>
        <CharString name="seven">
          -79 21 -21 543 125 hstem
          15 500 vstem
          258 12 callgsubr
        </CharString>
        <CharString name="seven.tf">
          10 21 -21 543 125 hstem
          66 500 vstem
          309 12 callgsubr
        </CharString>
        <CharString name="six">
          -26 callgsubr
        </CharString>
        <CharString name="six.tf">
          -26 callgsubr
        </CharString>
        <CharString name="slash">
          -180 -77 callsubr
          412 vstem
          15 hmoveto
          153 hlineto
          259 668 rlineto
          -151 hlineto
          endchar
        </CharString>
        <CharString name="space">
          -302 endchar
        </CharString>
        <CharString name="sterling">
          -5 -12 125 -89 110 161 73 190 121 hstemhm
          82 160 -69 158 hintmask 10110100
          50 368 rmoveto
          -73 113 vlineto
          7 -15 3 -15 -14 vvcurveto
          -72 -44 -37 -79 -38 vhcurveto
          55 -116 rlineto
          hintmask 01110100
          32 58 48 4 29 hhcurveto
          hintmask 10110100
          66 63 -36 71 hhcurveto
          65 49 12 23 46 hvcurveto
          -44 121 rlineto
          -20 -34 -33 -11 -36 hhcurveto
          hintmask 01110100
          -42 -50 21 -51 hhcurveto
          hintmask 10110100
          -28 -28 -3 -16 -28 hvcurveto
          57 36 48 48 56 vvcurveto
          14 -2 13 -5 13 vhcurveto
          126 73 hlineto
          hintmask 10111000
          -160 hlineto
          -22 41 -26 38 43 vvcurveto
          42 40 26 54 48 50 -20 -52 15 vhcurveto
          136 50 rlineto
          90 -39 -96 53 -116 hhcurveto
          -124 -128 -51 -125 -49 21 -45 22 -41 hvcurveto
          endchar
        </CharString>
        <CharString name="summation">
          -5 -162 128 574 128 hstem
          41 535 vstem
          41 -104 callsubr
          -128 vlineto
          237 -286 -237 -288 rlineto
          -128 535 128 -365 vlineto
          239 288 -239 286 rlineto
          365 128 hlineto
          endchar
        </CharString>
        <CharString name="t">
          31 callsubr
          hstem
          95 152 vstem
          13 380 rmoveto
          82 -240 hlineto
          -117 42 -81 callgsubr
          96 124 -44 hlineto
          -49 -92 callsubr
          200 108 -64 callsubr
          vlineto
          endchar
        </CharString>
        <CharString name="tcaron">
          31 callsubr
          57 67 hstem
          95 152 vstem
          13 380 rmoveto
          82 -240 hlineto
          -117 42 -81 callgsubr
          96 124 -44 hlineto
          -49 -92 callsubr
          200 108 -64 callsubr
          vlineto
          361 57 rmoveto
          -85 callsubr
          -24 -145 rlineto
          endchar
        </CharString>
        <CharString name="thorn">
          -26 -12 118 286 30 callsubr
          212 158 vstem
          50 -161 rmoveto
          152 231 hlineto
          -54 32 callsubr
          162 161 -91 102 -128 -53 -66 -28 -54 -32 hvcurveto
          240 -152 vlineto
          255 -276 rmoveto
          59 50 -54 -91 -92 -50 -49 -59 -60 -50 42 103 101 50 40 60 hvcurveto
          endchar
        </CharString>
        <CharString name="three">
          -17 -12 113 190 106 170 113 hstemhm
          390 54 callgsubr
          33 -42 callsubr
        </CharString>
        <CharString name="three.tf">
          10 -12 113 190 106 170 113 hstemhm
          413 54 callgsubr
          56 -42 callsubr
        </CharString>
        <CharString name="threequarters">
          337 0 161 -87 87 129 76 80 84 73 76 -12 -20 hstemhm
          247 103 -95 105 388 101 hintmask 1011010110000000
          200 35 callgsubr
          -101 -515 rmoveto
          hintmask 0111100110000000
          -78 181 vlineto
          hintmask 1011100110000000
          -74 101 vlineto
          hintmask 0111100110000000
          74 57 87 -57 214 -101 vlineto
          -545 -85 rmoveto
          84 73 41 73 44 -23 33 -36 13 hvcurveto
          hintmask 1011101010000000
          52 callgsubr
          -81 -74 -53 -27 -50 11 callsubr
          -11 -23 -26 -23 -13 -42 hvcurveto
          -15 -84 15 hlineto
          hintmask 1011100110000000
          48 25 -11 -31 -21 -16 -17 -34 -28 -24 13 25 -9 hvcurveto
          -91 -32 rlineto
          -52 24 53 -30 73 hhcurveto
          545 -34 rmoveto
          -95 -79 vlineto
          endchar
        </CharString>
        <CharString name="threesuperior">
          -209 395 77 39 -20 61 84 73 76 hstemhm
          247 103 -95 105 hintmask 11110100
          203 395 rmoveto
          84 73 41 74 44 -23 33 -36 13 hvcurveto
          hintmask 11111000
          52 callgsubr
          -84 -71 -53 -26 -51 11 callsubr
          -10 -25 -25 -23 -13 -42 hvcurveto
          -15 -84 hlineto
          hintmask 11110100
          15 hlineto
          48 25 -11 -29 -23 -16 -17 -34 -28 -24 13 26 -9 hvcurveto
          -91 -33 rlineto
          -53 24 53 -30 73 hhcurveto
          endchar
        </CharString>
        <CharString name="tilde">
          -178 569 -84 callgsubr
          37 370 hintmask 01100000
          37 574 -34 callsubr
        </CharString>
        <CharString name="tilde.case">
          -256 729 -84 callgsubr
          -2 370 hintmask 01100000
          -2 734 -34 callsubr
        </CharString>
        <CharString name="trademark">
          313 575 93 hstem
          162 109 144 107 265 107 vstem
          415 301 rmoveto
          107 257 hlineto
          84 -257 rlineto
          97 hlineto
          84 257 rlineto
          -257 107 367 -173 vlineto
          -67 -236 -66 236 rlineto
          -173 hlineto
          -374 -93 rmoveto
          121 -274 109 274 120 93 -350 hlineto
          endchar
        </CharString>
        <CharString name="two">
          -36 0 125 442 113 hstem
          391 153 vstem
          34 -32 callsubr
        </CharString>
        <CharString name="two.tf">
          10 0 125 442 113 hstem
          417 153 vstem
          60 -32 callsubr
        </CharString>
        <CharString name="twosuperior">
          -215 403 87 219 76 hstem
          251 103 vstem
          53 403 rmoveto
          300 87 -158 hlineto
          97 65 62 48 74 vvcurveto
          74 -61 34 -80 -75 -53 -30 -56 -21 vhcurveto
          91 -33 rlineto
          25 5 19 18 29 hhcurveto
          24 19 -12 -24 -54 -92 -63 -70 -47 hvcurveto
          -36 -25 rlineto
          endchar
        </CharString>
        <CharString name="u">
          -98 callgsubr
          -85 callgsubr
          hintmask 10111000
          50 496 rmoveto
          -298 vlineto
          13 callgsubr
          hintmask 01111000
          -88 callgsubr
          hintmask 10111000
          -82 callsubr
          vlineto
          endchar
        </CharString>
        <CharString name="uacute">
          -19 callgsubr
          121 586 -103 callsubr
        </CharString>
        <CharString name="ucircumflex">
          -98 callgsubr
          98 152 -85 callgsubr
          hintmask 10111100
          -57 callsubr
          -45 callgsubr
          -152 -298 vlineto
          -83 callgsubr
          vhcurveto
          -134 -11 callsubr
          endchar
        </CharString>
        <CharString name="udieresis">
          -98 callgsubr
          102 141 -93 callsubr
          -86 -107 callgsubr
          -84 153 hintmask 10111001
          -57 callsubr
          hintmask 01111001
          -88 callgsubr
          hintmask 10111001
          -82 callsubr
          -152 -298 vlineto
          -83 callgsubr
          vhcurveto
          hintmask 10110110
          -35 590 21 callgsubr
          123 70 rmoveto
          -39 32 -31 39 -35 callgsubr
          vhcurveto
          endchar
        </CharString>
        <CharString name="ugrave">
          -98 callgsubr
          98 154 -85 callgsubr
          hintmask 10111100
          50 198 rmoveto
          -135 40 -75 132 76 39 33 49 29 vhcurveto
          hintmask 01111100
          -88 callgsubr
          hintmask 10111100
          -82 callsubr
          -152 vlineto
          104 133 rmoveto
          48 callgsubr
          0 -109 133 1 vvcurveto
          -5 5 rlineto
          -66 callgsubr
          -31 -25 -26 -30 -18 7 -13 12 -12 hvcurveto
          endchar
        </CharString>
        <CharString name="uhungarumlaut">
          -19 callgsubr
          12 586 -4 callsubr
          202 hmoveto
          114 hlineto
          75 55 rlineto
          12 10 7 16 16 -41 callgsubr
          endchar
        </CharString>
        <CharString name="umacron">
          -98 callgsubr
          94 98 hstemhm
          50 152 164 153 hintmask 10111100
          50 496 rmoveto
          -298 vlineto
          13 callgsubr
          -45 callgsubr
          vlineto
          -66 172 rmoveto
          -98 299 98 vlineto
          endchar
        </CharString>
        <CharString name="underscore">
          -192 -128 128 hstem
          10 410 vstem
          420 -128 rmoveto
          128 -410 -91 callsubr
        </CharString>
        <CharString name="uni000D">
          -622 endchar
        </CharString>
        <CharString name="uni00A0">
          -302 endchar
        </CharString>
        <CharString name="uni0122">
          97 -251 45 194 130 -97 -21 250 128 172 130 -96 callgsubr
          148 118 57 158 hintmask 01011111
          375 250 rmoveto
          150 -19 hlineto
          -28 callsubr
          96 66 28 58 43 hvcurveto
          hintmask 10111111
          61 callgsubr
          hlineto
          -75 -629 rmoveto
          -104 callgsubr
        </CharString>
        <CharString name="uni0123">
          -25 -203 116 106 117 256 119 -15 -20 253 45 -76 callsubr
          8 118 87 151 hintmask 11011111
          415 496 rmoveto
          -20 -68 rlineto
          -100 144 -271 -36 -277 vvcurveto
          -230 245 -88 126 155 vhcurveto
          -89 vlineto
          -35 -12 -36 -41 -14 vhcurveto
          -36 -14 -81 -4 -28 56 -124 -45 rcurveline
          77 -152 205 27 72 32 rrcurveto
          96 43 23 88 84 vvcurveto
          459 vlineto
          -254 -360 rmoveto
          -60 -50 43 88 hvcurveto
          hintmask 11101111
          36 callgsubr
          vhcurveto
          66 638 rmoveto
          -108 -60 -48 -62 -36 22 -35 62 -25 hvcurveto
          102 41 rlineto
          -38 8 -30 23 28 vvcurveto
          40 39 21 63 vhcurveto
          endchar
        </CharString>
        <CharString name="uni0136">
          37 -251 45 227 -21 -95 callgsubr
          44 158 78 118 vstem
          372 382 rmoveto
          264 286 rlineto
          -193 hlineto
          -241 -265 rlineto
          265 -158 -668 158 197 vlineto
          68 75 196 -272 rlineto
          183 hlineto
          -419 -54 callgsubr
        </CharString>
        <CharString name="uni0137">
          -55 -251 45 227 41 callgsubr
          52 118 vstem
          354 289 rmoveto
          194 207 rlineto
          -180 hlineto
          -166 -188 rlineto
          360 -152 -668 152 125 vlineto
          52 55 129 -180 rlineto
          180 hlineto
          -359 -54 callgsubr
        </CharString>
        <CharString name="uni013B">
          -85 -252 45 207 139 529 -20 -107 callsubr
          90 118 vstem
          202 139 rmoveto
          529 -158 47 callgsubr
          vlineto
          -280 -391 rmoveto
          -104 callgsubr
        </CharString>
        <CharString name="uni013C">
          -308 -251 45 206 124 544 -20 -93 callsubr
          -78 118 hintmask 11110000
          268 124 rmoveto
          -51 -92 callsubr
          488 -152 -528 vlineto
          -33 callgsubr
          97 124 hlineto
          -237 -375 -67 callsubr
        </CharString>
        <CharString name="uni0145">
          78 -251 45 227 43 callsubr
          117 118 72 153 vstem
          454 hmoveto
          202 668 -153 -476 hlineto
          -258 476 rlineto
          -201 -668 152 476 hlineto
          67 -727 rmoveto
          -104 callgsubr
        </CharString>
        <CharString name="uni0146">
          -50 -251 45 227 -39 callgsubr
          54 118 -4 152 hintmask 11011010
          355 510 rmoveto
          -76 -55 -43 -37 -22 hvcurveto
          hintmask 11101010
          -27 callgsubr
          -496 152 255 hlineto
          hintmask 11011010
          11 callgsubr
          vhcurveto
          -149 -761 rmoveto
          hintmask 11011100
          -104 callgsubr
        </CharString>
        <CharString name="uni0162">
          -38 callsubr
        </CharString>
        <CharString name="uni0163">
          -43 callsubr
        </CharString>
        <CharString name="uni0218">
          -3 -251 45 194 127 438 127 hstemhm
          28 162 103 118 23 162 hintmask 11110100
          356 403 rmoveto
          -90 18 rlineto
          -46 9 -30 25 34 vvcurveto
          41 46 23 61 63 46 -25 -45 18 vhcurveto
          143 52 rlineto
          103 -42 -106 42 -108 hhcurveto
          -134 -149 -64 -143 -114 94 -53 109 -21 hvcurveto
          81 -16 rlineto
          72 -14 50 -23 -47 vvcurveto
          -52 -62 -18 -57 -74 -54 30 64 -18 vhcurveto
          -144 -52 rlineto
          -79 callsubr
          8 callsubr
          -113 -654 rmoveto
          hintmask 11111100
          -104 callgsubr
        </CharString>
        <CharString name="uni0219">
          -88 -251 45 194 111 300 111 hstemhm
          33 145 67 118 -2 146 hintmask 11110100
          331 302 rmoveto
          -92 17 rlineto
          -44 8 -17 12 20 vvcurveto
          26 28 14 54 45 38 -10 -36 10 vhcurveto
          128 47 rlineto
          78 -37 -88 32 -95 hhcurveto
          -123 -105 -53 -104 -83 66 -49 96 -16 hvcurveto
          89 -15 rlineto
          57 -10 20 -14 -21 vvcurveto
          -31 -45 -15 -49 -57 -45 20 42 -15 vhcurveto
          -129 -47 rlineto
          -83 38 89 -43 116 hhcurveto
          133 110 57 117 28 callsubr
          hvcurveto
          -136 -553 rmoveto
          hintmask 11111000
          -104 callgsubr
        </CharString>
        <CharString name="uni021A">
          -38 callsubr
        </CharString>
        <CharString name="uni021B">
          -43 callsubr
        </CharString>
        <CharString name="uni02C9">
          -249 550 98 hstem
          37 299 vstem
          336 550 -71 callgsubr
        </CharString>
        <CharString name="uni0326">
          -342 -251 45 hstem
          126 118 vstem
          76 -54 callgsubr
        </CharString>
        <CharString name="uni0394">
          93 0 115 565 -20 hstem
          41 633 vstem
          357 418 rmoveto
          128 -303 rlineto
          -256 hlineto
          128 565 rmoveto
          -316 -680 rlineto
          633 hlineto
          endchar
        </CharString>
        <CharString name="uni03A9">
          46 0 115 449 116 hstemhm
          41 121 16 131 50 131 15 122 hintmask 11100100
          41 hmoveto
          hintmask 11110100
          268 223 hlineto
          hintmask 11100100
          -83 12 -64 72 85 vvcurveto
          95 77 77 95 94 77 -77 -95 vhcurveto
          hintmask 11101100
          -85 -63 -72 -83 -12 vhcurveto
          -223 268 115 -137 24 vlineto
          hintmask 11100100
          82 52 55 92 103 vvcurveto
          162 -131 132 -162 -162 -131 -132 -162 vhcurveto
          hintmask 11110100
          -103 55 -92 82 -52 vhcurveto
          -24 -137 vlineto
          endchar
        </CharString>
        <CharString name="uni03BC">
          -52 -12 118 -106 106 389 -20 -85 callgsubr
          hintmask 10111000
          50 -162 rmoveto
          152 180 hlineto
          -19 21 28 -11 28 hhcurveto
          33 34 16 39 22 hvcurveto
          hintmask 01111000
          13 -43 rlineto
          138 495 -153 -265 hlineto
          hintmask 10111000
          -93 -25 -31 -64 -57 -18 25 99 vhcurveto
          265 -152 vlineto
          endchar
        </CharString>
        <CharString name="uni2113">
          -118 -12 122 463 107 hstem
          106 151 82 124 vstem
          41 112 rmoveto
          65 45 rlineto
          -125 1 78 -44 100 hhcurveto
          82 58 37 27 30 hvcurveto
          -57 89 rlineto
          -17 -22 -26 -14 -31 hhcurveto
          -42 -20 22 59 hvcurveto
          73 vlineto
          11 8 rlineto
          111 81 84 73 106 vvcurveto
          94 -63 54 -103 -114 -77 -63 -165 vhcurveto
          -187 vlineto
          -65 -47 rlineto
          216 155 rmoveto
          128 vlineto
          48 11 24 31 25 15 -17 -35 -56 -30 -53 -48 -36 vhcurveto
          endchar
        </CharString>
        <CharString name="uni2215">
          29 -77 callsubr
          621 39 callgsubr
          153 hlineto
          468 668 rlineto
          endchar
        </CharString>
        <CharString name="uni2219">
          157 194 44 callsubr
          41 255 rmoveto
          -96 callsubr
          53 44 44 54 54 -44 42 -53 -54 -44 -42 -54 vhcurveto
          endchar
        </CharString>
        <CharString name="uogonek">
          -49 -174 76 86 118 -85 -21 496 -20 hstemhm
          51 152 96 126 -58 153 hintmask 11011010
          51 198 rmoveto
          -135 40 -75 132 76 39 33 49 29 vhcurveto
          hintmask 11011100
          20 -68 rlineto
          -40 -10 -48 -33 -44 vvcurveto
          -38 34 -51 108 vhcurveto
          hintmask 11011010
          -29 callgsubr
          hvcurveto
          75 vlineto
          hintmask 11011100
          -2 -8 -21 -7 -20 hhcurveto
          -22 -24 6 24 hvcurveto
          hintmask 10111010
          -78 callsubr
          vhcurveto
          496 -153 -261 vlineto
          hintmask 11011010
          -82 callsubr
          -152 vlineto
          endchar
        </CharString>
        <CharString name="uring">
          -98 callgsubr
          59 86 94 85 -93 callsubr
          -49 85 94 86 -52 153 hintmask 1011110010000000
          -57 callsubr
          hintmask 0111110010000000
          -88 callgsubr
          -92 -24 -37 -64 -74 -2 59 71 vhcurveto
          260 -152 -298 vlineto
          hintmask 1011101100000000
          -83 callgsubr
          vhcurveto
          63 547 -60 callgsubr
        </CharString>
        <CharString name="v">
          -96 21 -21 496 -20 hstem
          0 526 vstem
          177 hmoveto
          171 hlineto
          178 496 rlineto
          -157 hlineto
          -106 -338 -106 338 rlineto
          -157 hlineto
          endchar
        </CharString>
        <CharString name="w">
          101 0 160 -139 -21 356 140 0 -20 hstemhm
          0 723 hintmask 01011000
          124 hmoveto
          166 hlineto
          hintmask 01101000
          71 356 72 -356 rlineto
          166 hlineto
          124 496 rlineto
          -151 hlineto
          hintmask 10011000
          -75 -336 -64 336 rlineto
          -144 hlineto
          -64 -336 -75 336 rlineto
          -150 hlineto
          endchar
        </CharString>
        <CharString name="x">
          -89 21 -21 496 -20 hstem
          0 533 vstem
          166 hmoveto
          101 143 100 -143 rlineto
          166 hlineto
          -184 259 169 237 rlineto
          -166 hlineto
          -85 -121 -86 121 rlineto
          -166 hlineto
          169 -237 -184 -259 rlineto
          endchar
        </CharString>
        <CharString name="y">
          -53 callsubr
          hstem
          0 518 -61 callgsubr
          endchar
        </CharString>
        <CharString name="yacute">
          -53 callsubr
          98 153 hstem
          0 518 -61 callgsubr
          152 78 -103 callsubr
        </CharString>
        <CharString name="ydieresis">
          -53 callsubr
          102 -94 callgsubr
          92 -107 callgsubr
          -61 callgsubr
          82 vmoveto
          -7 callgsubr
        </CharString>
        <CharString name="yen">
          65 0 149 -74 74 63 74 381 -20 hstemhm
          265 157 hintmask 10111000
          249 286 rmoveto
          -113 -74 129 -63 -129 hlineto
          hintmask 01111000
          -74 129 vlineto
          hintmask 10111000
          -75 157 vlineto
          hintmask 01111000
          75 130 vlineto
          hintmask 10111000
          74 -130 63 130 74 -114 vlineto
          239 381 rlineto
          -185 hlineto
          -149 -256 -149 256 rlineto
          -184 hlineto
          endchar
        </CharString>
        <CharString name="z">
          -72 callgsubr
          hstem
          30 466 vstem
          226 121 rmoveto
          0 callsubr
          466 121 vlineto
          endchar
        </CharString>
        <CharString name="zacute">
          -72 callgsubr
          78 153 hstem
          30 466 -13 callsubr
          181 574 -79 callgsubr
        </CharString>
        <CharString name="zcaron">
          -72 callgsubr
          72 152 hstem
          30 466 vstem
          30 121 rmoveto
          -121 466 121 -270 vlineto
          30 callgsubr
          -220 345 -100 callgsubr
        </CharString>
        <CharString name="zdotaccent">
          -72 callgsubr
          82 -94 callgsubr
          193 141 -13 callsubr
          163 648 -106 callgsubr
          endchar
        </CharString>
        <CharString name="zero">
          30 -12 113 466 113 hstem
          45 156 260 157 vstem
          45 -23 callgsubr
        </CharString>
        <CharString name="zero.tf">
          10 -12 113 466 113 hstem
          30 156 260 157 vstem
          30 -23 callgsubr
        </CharString>
      <CharString index="0">
        141 53 140 return
      </CharString>
      <CharString index="1">
        rmoveto
        -39 32 -31 39 39 31 31 39 39 -31 32 -39 -64 callgsubr
        vhcurveto
        return
      </CharString>
      <CharString index="2">
        21 -21 668 -20 return
      </CharString>
      <CharString index="3">
        108 60 48 62 36 -22 35 -62 25 hvcurveto
        -102 -40 rlineto
        38 -9 30 -23 -28 vvcurveto
        -39 -39 -22 -63 vhcurveto
        endchar
      </CharString>
      <CharString index="4">
        -56 -12 118 104 90 97 113 return
      </CharString>
      <CharString index="5">
        -74 -12 65 callgsubr
        return
      </CharString>
      <CharString index="6">
        -106 callgsubr
        265 -70 rmoveto
        20 callgsubr
      </CharString>
      <CharString index="7">
        0 callgsubr
        endchar
      </CharString>
      <CharString index="8">
        rmoveto
        -51 callgsubr
        -129 hlineto
        endchar
      </CharString>
      <CharString index="9">
        -52 -12 118 -106 106 390 -20 return
      </CharString>
      <CharString index="10">
        68 21 64 callgsubr
        return
      </CharString>
      <CharString index="11">
        hstemhm
        35 167 return
      </CharString>
      <CharString index="12">
        668 -20 hstem
        return
      </CharString>
      <CharString index="13">
        141 hstem
        return
      </CharString>
      <CharString index="14">
        -12 130 432 130 return
      </CharString>
      <CharString index="15">
        hstem
        24 155 return
      </CharString>
      <CharString index="16">
        hstem
        35 167 return
      </CharString>
      <CharString index="17">
        hstemhm
        19 157 return
      </CharString>
      <CharString index="18">
        19 134 rmoveto
        -90 77 -56 94 71 58 20 52 37 vhcurveto
        return
      </CharString>
      <CharString index="19">
        21 -70 rlineto
        132 496 -153 -261 hlineto
        return
      </CharString>
      <CharString index="20">
        -164 0 124 420 124 return
      </CharString>
      <CharString index="21">
        207 80 98 206 return
      </CharString>
      <CharString index="22">
        hstemhm
        50 152 164 153 return
      </CharString>
      <CharString index="23">
        79 -74 115 hstemhm
        return
      </CharString>
      <CharString index="24">
        -135 40 -75 132 return
      </CharString>
      <CharString index="25">
        -54 -44 -44 -54 return
      </CharString>
      <CharString index="26">
        -23 122 vhcurveto
        return
      </CharString>
      <CharString index="27">
        -124 45 rlineto
        -29 -17 -30 -18 -42 hhcurveto
        -54 -54 36 108 105 53 37 55 38 34 -16 -42 16 hvcurveto
        127 46 rlineto
        98 -46 -93 32 -85 hhcurveto
        -151 -103 -103 -156 return
      </CharString>
      <CharString index="28">
        rmoveto
        114 hlineto
        -46 callgsubr
        -24 -13 -13 -5 -4 vhcurveto
        endchar
      </CharString>
      <CharString index="29">
        139 -356 135 217 139 -217 116 356 139 -514 hlineto
        return
      </CharString>
      <CharString index="30">
        -6 callgsubr
        -158 return
      </CharString>
      <CharString index="31">
        -22 -19 -34 -15 -47 hhcurveto
        -56 -54 34 70 -5 hvcurveto
        367 hlineto
        175 10 -101 125 -163 hhcurveto
        -145 -121 -101 -158 hvcurveto
        return
      </CharString>
      <CharString index="32">
        -10 20 24 -6 24 hhcurveto
        42 46 20 37 21 hvcurveto
        return
      </CharString>
      <CharString index="33">
        30 17 -19 33 -34 hhcurveto
        -13 -11 -7 -13 -12 hvcurveto
        return
      </CharString>
      <CharString index="34">
        -37 callgsubr
        -30 callgsubr
        return
      </CharString>
      <CharString index="35">
        -106 0 121 254 121 return
      </CharString>
      <CharString index="36">
        rmoveto
        98 -299 -98 vlineto
        endchar
      </CharString>
      <CharString index="37">
        158 286 163 vstem
        return
      </CharString>
      <CharString index="38">
        -12 118 -85 -21 392 118 return
      </CharString>
      <CharString index="39">
        -205 -141 -138 -208 return
      </CharString>
      <CharString index="40">
        -12 195 -174 -21 return
      </CharString>
      <CharString index="41">
        9 -10 -13 6 -15 hhcurveto
        return
      </CharString>
      <CharString index="42">
        48 -33 -64 2 hvcurveto
        return
      </CharString>
      <CharString index="43">
        -39 -32 -32 -39 return
      </CharString>
      <CharString index="44">
        -5 callgsubr
        29 callgsubr
        return
      </CharString>
      <CharString index="45">
        24 259 rmoveto
        -151 106 -90 108 56 58 25 53 43 vhcurveto
        -89 vlineto
        -68 -45 -26 -61 -35 -39 11 36 -18 vhcurveto
        -124 -45 rlineto
        -91 46 92 -27 82 hhcurveto
        155 98 73 167 hvcurveto
        459 -131 vlineto
        -20 -68 rlineto
        return
      </CharString>
      <CharString index="46">
        vstem
        496 vmoveto
        190 -493 -5 -13 rlineto
        -38 -15 -11 -3 -64 hhcurveto
        -30 -110 49 hlineto
        129 37 35 126 48 hvcurveto
        190 496 rlineto
        -163 hlineto
        -95 -310 -97 310 rlineto
        return
      </CharString>
      <CharString index="47">
        rmoveto
        73 60 60 73 73 -60 59 -73 -73 -59 -59 -73 -73 59 -60 73 hvcurveto
        -47 133 rmoveto
        26 21 21 26 26 21 -21 -26 -26 -21 -21 -26 -26 -21 21 26 vhcurveto
        endchar
      </CharString>
      <CharString index="48">
        -106 callgsubr
        194 hmoveto
        -39 32 -31 39 -35 callgsubr
        vhcurveto
        endchar
      </CharString>
      <CharString index="49">
        rmoveto
        125 hlineto
        2 callgsubr
      </CharString>
      <CharString index="50">
        rmoveto
        7 callgsubr
        -147 -132 rlineto
        endchar
      </CharString>
      <CharString index="51">
        hstem
        5 680 vstem
        5 hmoveto
        172 hlineto
        -31 callgsubr
        172 hlineto
        -253 668 rlineto
        -174 hlineto
        return
      </CharString>
      <CharString index="52">
        -75 callgsubr
        -74 callgsubr
        -14 -13 -11 -7 -19 hhcurveto
        return
      </CharString>
      <CharString index="53">
        -251 rmoveto
        -104 callgsubr
      </CharString>
      <CharString index="54">
        79 40 32 74 14 11 -1 -2 16 vhcurveto
        152 vlineto
        -76 4 -53 -29 -31 -80 rrcurveto
        return
      </CharString>
      <CharString index="55">
        -10 43 -7 86 65 vvcurveto
        109 vlineto
        150 -79 57 -141 -114 -80 -50 -66 -33 vhcurveto
        128 -46 rlineto
        40 10 34 19 42 hhcurveto
        53 30 -21 -57 hvcurveto
        -19 vlineto
        -192 -14 -137 -41 -121 vvcurveto
        return
      </CharString>
      <CharString index="56">
        -12 13 18 -7 19 hhcurveto
        19 17 7 12 14 hvcurveto
        146 133 rlineto
        -128 hlineto
        -68 -61 -68 61 rlineto
        return
      </CharString>
      <CharString index="57">
        31 callgsubr
        -44 44 -53 -82 callgsubr
        return
      </CharString>
      <CharString index="58">
        48 callgsubr
        -114 139 rlineto
        -66 callgsubr
        -31 -25 -26 -31 return
      </CharString>
      <CharString index="59">
        35 334 rmoveto
        -208 141 -138 205 9 callgsubr
        vhcurveto
        return
      </CharString>
      <CharString index="60">
        -46 callgsubr
        -29 -12 -19 -1 -2 vhcurveto
        return
      </CharString>
      <CharString index="61">
        32 callgsubr
        15 17 vvcurveto
        32 -24 24 -32 return
      </CharString>
      <CharString index="62">
        hintmask 01111100
        -88 callgsubr
        hintmask 10111100
        -92 -24 -37 -64 -74 -2 59 71 vhcurveto
        260 return
      </CharString>
      <CharString index="63">
        rmoveto
        68 9 51 29 57 hhcurveto
        59 -65 callgsubr
        return
      </CharString>
      <CharString index="64">
        55 -32 -65 27 -54 hhcurveto
        -128 -91 -96 -162 return
      </CharString>
      <CharString index="65">
        67 callgsubr
        152 302 vlineto
        134 return
      </CharString>
      <CharString index="66">
        vvcurveto
        32 -24 24 -32 -29 -12 -19 -1 -2 vhcurveto
        return
      </CharString>
      <CharString index="67">
        32 21 -21 252 132 151 133 return
      </CharString>
      <CharString index="68">
        -21 392 104 -104 118 hstemhm
        50 152 return
      </CharString>
      <CharString index="69">
        -50 21 -21 392 104 -104 118 return
      </CharString>
      <CharString index="70">
        -91 -45 -25 -60 -40 -30 21 32 return
      </CharString>
      <CharString index="71">
        59 48 -37 -105 -104 -46 -40 -61 -62 -46 40 104 return
      </CharString>
      <CharString index="72">
        38 31 31 39 39 -31 32 -38 -64 callgsubr
        return
      </CharString>
      <CharString index="73">
        hstem
        41 195 vstem
        116 return
      </CharString>
      <CharString index="74">
        -117 42 -81 callgsubr
        return
      </CharString>
      <CharString index="75">
        -138 -125 -81 -179 return
      </CharString>
      <CharString index="76">
        40 119 rlineto
        256 hlineto
        40 -119 rlineto
        return
      </CharString>
      <CharString index="77">
        52 70 14 105 9 vhcurveto
        return
      </CharString>
      <CharString index="78">
        25 39 5 5 15 return
      </CharString>
      <CharString index="79">
        -21 380 116 return
      </CharString>
      <CharString index="80">
        -19 66 rlineto
        -133 return
      </CharString>
      <CharString index="81">
        10 -12 113 237 114 118 110 hstem
        51 161 213 156 vstem
        51 322 rmoveto
        -189 79 -145 191 151 109 90 139 138 -108 97 -120 -66 -44 -19 -30 -33 vhcurveto
        114 49 53 71 35 30 -13 -23 13 vhcurveto
        136 49 rlineto
        58 -35 -68 39 -101 hhcurveto
        -207 -82 -166 -192 hvcurveto
        161 -102 rmoveto
        72 43 46 64 66 40 -49 -70 -71 -40 -47 -65 -66 -42 47 72 vhcurveto
        endchar
      </CharString>
      <CharString index="82">
        -12 rmoveto
        156 118 77 141 82 -40 48 -75 42 hvcurveto
        hintmask 11101100
        21 31 12 37 41 vvcurveto
        106 -78 87 -114 -114 -79 -87 -106 -41 12 -37 20 -32 vhcurveto
        hintmask 11110010
        -75 -41 -39 -48 -81 vvcurveto
        -142 118 -77 157 vhcurveto
        -118 218 rmoveto
        56 48 32 70 68 49 -32 -56 -54 -49 -38 -68 -70 -48 37 55 vhcurveto
        118 349 rmoveto
        hintmask 11101100
        38 29 -30 -39 -38 -30 -31 -37 -38 -31 31 38 39 31 30 38 hvcurveto
        endchar
      </CharString>
      <CharString index="83">
        hstem
        33 145 183 146 vstem
        264 -12 rmoveto
        133 110 57 117 83 -56 35 -120 22 hvcurveto
        -92 17 rlineto
        -44 8 -17 12 20 vvcurveto
        26 28 14 54 45 38 -10 -36 10 vhcurveto
        128 47 rlineto
        78 -37 -88 32 -95 hhcurveto
        -123 -105 -53 -104 -83 66 -49 96 -16 hvcurveto
        89 -15 rlineto
        57 -10 20 -14 -21 vvcurveto
        -31 -45 -15 -49 -57 -45 20 42 -15 vhcurveto
        -129 -47 rlineto
        -83 38 89 -43 116 hhcurveto
        return
      </CharString>
      <CharString index="84">
        335 rmoveto
        -213 99 -134 187 188 99 134 213 214 -99 131 -188 -187 -99 -131 -214 vhcurveto
        164 96 rmoveto
        203 -292 rlineto
        -26 -21 -28 -12 -32 hhcurveto
        -77 -53 73 161 37 3 31 5 28 hvcurveto
        122 136 rmoveto
        78 52 -71 -162 -32 -2 -30 -4 -26 hvcurveto
        -201 288 rlineto
        22 21 26 11 30 hhcurveto
        endchar
      </CharString>
      <CharString index="85">
        441 rmoveto
        -134 108 -105 132 vhcurveto
        -108 -202 rlineto
        160 hlineto
        162 335 rlineto
        16 34 8 35 35 vvcurveto
        132 -109 108 -132 -131 -106 -107 -131 vhcurveto
        135 -10 rmoveto
        9 vlineto
        53 40 46 55 5 vhcurveto
        9 hlineto
        53 45 -40 -54 6 hvcurveto
        -5 vlineto
        1 -2 0 -2 -2 vvcurveto
        -57 -47 -47 -57 -53 -47 41 55 -5 vhcurveto
        endchar
      </CharString>
      <CharString index="86">
        141 vstem
        24 251 rmoveto
        -164 111 -99 161 81 84 35 76 52 vhcurveto
        -121 44 rlineto
        -76 callgsubr
        270 146 25 callgsubr
        return
      </CharString>
      <CharString index="87">
        -12 rmoveto
        144 126 80 153 155 -115 78 -119 -47 -55 -13 -22 -31 hvcurveto
        15 125 rlineto
        321 124 -447 hlineto
        -42 -342 135 -50 rlineto
        42 23 38 23 49 hhcurveto
        62 56 -38 -82 -78 -51 -42 -70 -49 -46 21 65 -19 hvcurveto
        -132 -48 rlineto
        -99 42 96 -52 116 hhcurveto
        endchar
      </CharString>
      <CharString index="88">
        -98 callgsubr
        98 153 -85 callgsubr
        hintmask 10111100
        222 -12 rmoveto
        76 39 33 49 29 hvcurveto
        -45 callgsubr
        -152 -298 vlineto
        -83 callgsubr
        vhcurveto
        return
      </CharString>
      <CharString index="89">
        -91 callgsubr
        359 168 vstem
        -48 callgsubr
        167 hmoveto
        142 82 74 97 98 82 -74 -142 -142 -82 -74 -98 -97 -82 74 142 vhcurveto
        return
      </CharString>
      <CharString index="90">
        24 251 rmoveto
        -164 111 -99 161 81 84 35 76 52 vhcurveto
        -121 44 rlineto
        -76 callgsubr
        153 49 -44 callgsubr
        return
      </CharString>
      <CharString index="91">
        -90 18 rlineto
        -46 9 -30 25 34 vvcurveto
        41 46 23 61 63 46 -25 -45 18 vhcurveto
        143 52 rlineto
        103 -42 -106 42 -108 hhcurveto
        -134 -149 -64 -143 -114 94 -53 109 -21 hvcurveto
        81 -16 rlineto
        72 -14 50 -23 -47 vvcurveto
        -52 -62 -18 -57 -74 -54 30 64 -18 vhcurveto
        return
      </CharString>
      <CharString index="92">
        -9 callgsubr
        155 hmoveto
        105 48 37 60 -36 callgsubr
        vhcurveto
        return
      </CharString>
      <CharString index="93">
        412 rmoveto
        -137 118 -275 220 vlineto
        218 169 79 255 254 -169 80 -218 hvcurveto
        -220 -256 hlineto
        158 hmoveto
        125 65 vlineto
        33 callgsubr
        -65 142 77 137 hlineto
        endchar
      </CharString>
      <CharString index="94">
        18 -60 rlineto
        141 hlineto
        -52 callgsubr
        332 86 rmoveto
        -12 vlineto
        return
      </CharString>
      <CharString index="95">
        vstem
        278 -12 rmoveto
        79 92 30 90 51 hvcurveto
        -80 callgsubr
        -157 90 -106 164 hvcurveto
        return
      </CharString>
      <CharString index="96">
        -91 callgsubr
        359 168 vstem
        381 -12 rmoveto
        9 callgsubr
        -208 141 -138 205 hvcurveto
        return
      </CharString>
      <CharString index="97">
        -1 callgsubr
        339 501 59 callgsubr
        return
      </CharString>
      <CharString index="98">
        49 callgsubr
        -4 callgsubr
        return
      </CharString>
      <CharString index="99">
        -85 -76 -28 -73 -104 -70 78 140 141 76 73 95 69 44 -29 -35 22 vhcurveto
        136 56 rlineto
        91 -53 -99 47 -117 hhcurveto
        -202 -138 -133 -211 hvcurveto
        return
      </CharString>
      <CharString index="100">
        24 callgsubr
        194 hmoveto
        20 callgsubr
      </CharString>
      <CharString index="101">
        376 -158 -389 vlineto
        -99 -19 -63 -110 -111 -19 63 99 vhcurveto
        389 return
      </CharString>
      <CharString index="102">
        5 -3 6 -1 6 2 rrcurveto
        3 9 10 2 8 hhcurveto
        22 15 -10 -16 -20 -20 -7 -24 -24 -26 7 6 -11 hvcurveto
        -16 -50 rlineto
        -8 25 31 -5 32 hhcurveto
        return
      </CharString>
      <CharString index="103">
        24 250 rmoveto
        -179 125 -83 138 136 126 83 179 179 -126 81 -136 -32 callgsubr
        vhcurveto
        return
      </CharString>
      <CharString index="104">
        rmoveto
        74 -55 rlineto
        125 hlineto
        0 -124 138 -1 1 vhcurveto
        -66 callgsubr
        -29 -27 -27 -29 -19 7 -11 13 -13 hvcurveto
        endchar
      </CharString>
      <CharString index="105">
        252 rmoveto
        -111 325 -141 152 141 92 134 -92 393 -152 vlineto
        -199 vmoveto
        -194 -160 vlineto
        endchar
      </CharString>
      <CharString index="106">
        vstem
        3 callgsubr
        return
      </CharString>
      <CharString index="107">
        rmoveto
        147 -133 rlineto
        -51 callgsubr
        return
      </CharString>
      <CharString index="108">
        4 callgsubr
        endchar
      </CharString>
      <CharString index="109">
        74 55 rlineto
        12 12 7 13 18 vvcurveto
        31 -25 25 -31 -14 -14 -6 -9 -10 vhcurveto
        -5 -5 rlineto
        -1 -119 -133 0 vhcurveto
        endchar
      </CharString>
      <CharString index="110">
        177 hmoveto
        -31 callgsubr
        172 hlineto
        -253 668 rlineto
        -174 hlineto
        -253 -668 rlineto
        return
      </CharString>
      <CharString index="111">
        rmoveto
        16 callgsubr
        -85 hlineto
        -68 12 60 -52 71 hhcurveto
        return
      </CharString>
      <CharString index="112">
        6 callgsubr
        endchar
      </CharString>
      <CharString index="113">
        rmoveto
        -68 12 60 -52 71 hhcurveto
        16 callgsubr
        return
      </CharString>
      <CharString index="114">
        68 61 68 -61 rlineto
        128 hlineto
        -146 132 rlineto
        12 -14 -17 8 -19 hhcurveto
        -19 -18 -8 -12 -13 hvcurveto
        return
      </CharString>
      <CharString index="115">
        -53 -137 rlineto
        90 hlineto
        77 197 -50 callgsubr
        return
      </CharString>
      <CharString index="116">
        205 143 138 208 208 -143 138 -205 -68 callgsubr
        return
      </CharString>
      <CharString index="117">
        171 82 rmoveto
        50 40 41 49 50 -40 40 -50 -50 -40 -40 -50 -49 40 -41 50 hvcurveto
        endchar
      </CharString>
      <CharString index="118">
        90 28 47 64 73 3 -42 callgsubr
        -39 74 -128 return
      </CharString>
      <CharString index="119">
        hmoveto
        257 543 rlineto
        125 -500 -125 339 vlineto
        -271 -543 rlineto
        endchar
      </CharString>
      <CharString index="120">
        -83 callgsubr
        76 39 33 49 29 vhcurveto
        return
      </CharString>
      <CharString index="121">
        -174 rmoveto
        -29 callgsubr
        hvcurveto
        75 vlineto
        -2 -8 -21 -7 -20 hhcurveto
        -22 -24 6 24 return
      </CharString>
      <CharString index="122">
        98 82 -74 -142 -142 -82 -74 -98 -97 -82 74 142 142 82 74 97 hvcurveto
        return
      </CharString>
      <CharString index="123">
        72 60 52 68 12 hvcurveto
        -85 hlineto
        -21 -5 -24 -22 -30 hhcurveto
        -30 -23 22 21 -5 hvcurveto
        return
      </CharString>
      <CharString index="124">
        rmoveto
        -30 callgsubr
        -12 vlineto
        -37 callgsubr
        vhcurveto
        endchar
      </CharString>
      <CharString index="125">
        -12 119 -86 -21 264 118 -96 118 157 119 -12 -20 hstemhm
        return
      </CharString>
      <CharString index="126">
        139 -349 vlineto
        334 408 rlineto
        121 -527 -139 322 vlineto
        return
      </CharString>
      <CharString index="127">
        -35 callgsubr
        -39 32 -31 39 hvcurveto
        endchar
      </CharString>
      <CharString index="128">
        rmoveto
        24 callgsubr
        return
      </CharString>
      <CharString index="129">
        35 336 rmoveto
        -213 121 -135 196 96 66 28 58 43 vhcurveto
        return
      </CharString>
      <CharString index="130">
        31 callgsubr
        -43 44 -54 -53 -44 -44 -54 vhcurveto
        endchar
      </CharString>
      <CharString index="131">
        39 31 31 39 39 -31 32 -39 -64 callgsubr
        -39 32 -31 39 hvcurveto
        return
      </CharString>
      <CharString index="132">
        rmoveto
        59 -65 callgsubr
        -226 hlineto
        68 9 51 29 57 hhcurveto
        return
      </CharString>
      <CharString index="133">
        118 381 rmoveto
        -381 153 496 -247 -115 vlineto
        return
      </CharString>
      <CharString index="134">
        -28 callgsubr
        82 180 hstemhm
        105 180 -167 153 return
      </CharString>
      <CharString index="135">
        -252 -161 120 234 123 232 120 hstemhm
        return
      </CharString>
      <CharString index="136">
        64 63 22 58 46 -48 16 -38 -14 -11 -1 -2 -9 hvcurveto
        return
      </CharString>
      <CharString index="137">
        256 254 rlineto
        121 -438 -121 243 vlineto
        return
      </CharString>
      <CharString index="138">
        66 callgsubr
        12 vvcurveto
        54 return
      </CharString>
      <CharString index="139">
        75 55 rlineto
        12 10 7 return
      </CharString>
      <CharString index="140">
        115 106 -27 -176 -176 -106 -25 -115 hvcurveto
        return
      </CharString>
      <CharString index="141">
        hlineto
        -39 -12 -41 -27 -46 vvcurveto
        -38 34 -51 108 return
      </CharString>
      <CharString index="142">
        hmoveto
        127 hlineto
        468 667 rlineto
        -127 hlineto
        return
      </CharString>
      <CharString index="143">
        87 50 38 60 57 callgsubr
        return
      </CharString>
      <CharString index="144">
        65 callgsubr
        -90 callgsubr
        return
      </CharString>
      <CharString index="145">
        334 rmoveto
        63 callgsubr
        return
      </CharString>
      <CharString index="146">
        vstem
        483 668 rmoveto
        -468 -668 rlineto
        return
      </CharString>
      <CharString index="147">
        -289 -161 115 598 116 hstem
        return
      </CharString>
      <CharString index="148">
        -21 496 -20 192 -20 hstem
        50 152 return
      </CharString>
      <CharString index="149">
        vlineto
        hintmask 11011100
        74 -158 vlineto
        hintmask 11101100
        -74 return
      </CharString>
      <CharString index="150">
        hstem
        41 158 259 158 vstem
        41 return
      </CharString>
      <CharString index="151">
        74 57 -14 -62 -62 -57 -13 -74 hvcurveto
        -104 return
      </CharString>
      <CharString index="152">
        190 -12 rmoveto
        71 58 20 52 37 hvcurveto
        return
      </CharString>
      <CharString index="153">
        rmoveto
        84 254 86 -254 rlineto
        endchar
      </CharString>
      <CharString index="154">
        -668 478 139 return
      </CharString>
      <CharString index="155">
        75 -55 rlineto
        114 hlineto
        return
      </CharString>
      <CharString index="156">
        hstem
        24 155 215 155 vstem
        return
      </CharString>
      <CharString index="157">
        hstem
        44 152 307 153 vstem
        return
      </CharString>
      <CharString index="158">
        118 286 118 -14 -20 hstemhm
        return
      </CharString>
      <CharString index="159">
        26 13 23 30 40 vvcurveto
        65 -61 37 return
      </CharString>
      <CharString index="160">
        -196 rlineto
        -4 -11 -3 -12 -12 vvcurveto
        return
      </CharString>
      <CharString index="161">
        153 -145 156 hintmask 11101000
        return
      </CharString>
      <CharString index="162">
        -207 -131 -135 -211 return
      </CharString>
      <CharString index="163">
        -213 126 -133 208 return
      </CharString>
      <CharString index="164">
        59 50 -32 -97 -97 -50 -30 -59 return
      </CharString>
      <CharString index="165">
        hstemhm
        50 152 168 152 return
      </CharString>
      <CharString index="166">
        rmoveto
        86 -254 rlineto
        -170 hlineto
        return
      </CharString>
      <CharString index="167">
        rmoveto
        -243 101 375 -79 vlineto
        return
      </CharString>
      <CharString index="168">
        22 -74 rlineto
        104 378 -308 return
      </CharString>
      <CharString index="169">
        -128 -53 -66 -27 -55 -32 hvcurveto
        return
      </CharString>
      <CharString index="170">
        -191 155 -155 190 return
      </CharString>
      <CharString index="171">
        -21 119 128 421 -20 return
      </CharString>
      <CharString index="172">
        104 -71 -21 220 90 97 103 return
      </CharString>
      <CharString index="173">
        rlineto
        4 11 2 12 return
      </CharString>
      <CharString index="174">
        -58 -70 vhcurveto
        -264 return
      </CharString>
</ttFont>
